<svg width="34" height="28" viewBox="0 0 34 28" fill="none" xmlns="http://www.w3.org/2000/svg">
<path d="M19.521 13.1224C18.3539 12.5705 17.1453 12.9297 16.5 13.7615C15.842 14.6097 15.8117 15.8841 16.844 17.0642C17.8081 18.1663 19.241 18.7506 20.5433 19.0635C21.8515 19.3778 23.0695 19.4279 23.6476 19.4317C23.992 19.4339 24.2874 19.2148 24.3852 18.8845C24.5493 18.3302 24.8545 17.15 24.9332 15.8068C25.0114 14.4698 24.8678 12.9289 24.0927 11.6867C23.2627 10.3565 22.0343 10.0158 21.0316 10.3994C20.0483 10.7756 19.3539 11.8279 19.5436 13.1049C19.545 13.1147 19.5464 13.1245 19.5475 13.1344C19.5392 13.1308 19.5303 13.1268 19.521 13.1224Z" stroke="#1C2B49" stroke-opacity="0.9" stroke-width="0.6" stroke-linecap="round" stroke-linejoin="round"/>
<path d="M7.86971 3.35557L6.81993 12.5537C6.78587 12.8521 6.88774 13.15 7.09737 13.3651L20.646 27.2656C21.0384 27.6682 21.6854 27.6683 22.0779 27.2659L32.6888 16.3886C33.0673 16.0005 33.0677 15.3815 32.6897 14.9929L19.4296 1.36452C19.2067 1.13547 18.8878 1.02673 18.5715 1.07193L8.72184 2.47901C8.27148 2.54335 7.9213 2.90357 7.86971 3.35557Z" stroke="#1C2B49" stroke-opacity="0.9" stroke-width="0.6" stroke-linecap="round" stroke-linejoin="round"/>
<circle cx="12.7198" cy="6.95519" r="2.47941" stroke="#1C2B49" stroke-opacity="0.9" stroke-width="0.6"/>
<path d="M7.16205 8.5453C7.16205 8.5453 -1.97028 17.2804 2.00026 18.0748C5.9708 18.8692 17.0885 5.36913 10.3385 6.95715" stroke="#1C2B49" stroke-opacity="0.9" stroke-width="0.6"/>
</svg>
