<svg width="32" height="35" viewBox="0 0 32 35" fill="none" xmlns="http://www.w3.org/2000/svg">
<mask id="path-1-inside-1" fill="white">
<path fill-rule="evenodd" clip-rule="evenodd" d="M8.4773 10.4437C5.40874 12.6977 3.41699 16.3319 3.41699 20.4313C3.41699 27.271 8.96168 32.8157 15.8014 32.8157C22.6411 32.8157 28.1858 27.271 28.1858 20.4313C28.1858 13.5916 22.6411 8.04688 15.8014 8.04688C15.7769 8.04688 15.7524 8.04695 15.728 8.04709C15.7251 8.24566 15.7222 8.44584 15.7193 8.64716C15.7467 8.64697 15.774 8.64688 15.8014 8.64688C22.3097 8.64688 27.5858 13.9229 27.5858 20.4313C27.5858 26.9396 22.3097 32.2157 15.8014 32.2157C9.29305 32.2157 4.01699 26.9396 4.01699 20.4313C4.01699 16.5111 5.93111 13.0381 8.8757 10.8957L8.4773 10.4437Z"/>
</mask>
<path d="M8.4773 10.4437L8.92743 10.047C8.72197 9.81386 8.37253 9.77618 8.1221 9.96014L8.4773 10.4437ZM15.728 8.04709L15.7245 7.4471C15.3979 7.44899 15.1328 7.71179 15.1281 8.03837L15.728 8.04709ZM15.7193 8.64716L15.1194 8.63852C15.1171 8.79984 15.1798 8.9553 15.2934 9.06981C15.4071 9.18432 15.5621 9.24824 15.7234 9.24714L15.7193 8.64716ZM8.8757 10.8957L9.2287 11.3809C9.36525 11.2816 9.45361 11.1293 9.4721 10.9614C9.49058 10.7936 9.43748 10.6257 9.32583 10.499L8.8757 10.8957ZM8.1221 9.96014C4.90626 12.3224 2.81699 16.1329 2.81699 20.4313H4.01699C4.01699 16.5309 5.91122 13.0731 8.83251 10.9273L8.1221 9.96014ZM2.81699 20.4313C2.81699 27.6024 8.6303 33.4157 15.8014 33.4157V32.2157C9.29305 32.2157 4.01699 26.9396 4.01699 20.4313H2.81699ZM15.8014 33.4157C22.9725 33.4157 28.7858 27.6024 28.7858 20.4313H27.5858C27.5858 26.9396 22.3097 32.2157 15.8014 32.2157V33.4157ZM28.7858 20.4313C28.7858 13.2602 22.9725 7.44687 15.8014 7.44687V8.64688C22.3097 8.64688 27.5858 13.9229 27.5858 20.4313H28.7858ZM15.8014 7.44687C15.7757 7.44687 15.7501 7.44695 15.7245 7.4471L15.7315 8.64708C15.7548 8.64694 15.7781 8.64688 15.8014 8.64688V7.44687ZM15.1281 8.03837C15.1252 8.23697 15.1223 8.43717 15.1194 8.63852L16.3193 8.6558C16.3222 8.45451 16.3251 8.25435 16.3279 8.05581L15.1281 8.03837ZM15.8014 8.04688C15.7726 8.04688 15.7439 8.04698 15.7152 8.04717L15.7234 9.24714C15.7494 9.24697 15.7754 9.24688 15.8014 9.24688V8.04688ZM28.1858 20.4313C28.1858 13.5916 22.6411 8.04688 15.8014 8.04688V9.24688C21.9784 9.24688 26.9858 14.2543 26.9858 20.4313H28.1858ZM15.8014 32.8157C22.6411 32.8157 28.1858 27.271 28.1858 20.4313H26.9858C26.9858 26.6082 21.9784 31.6157 15.8014 31.6157V32.8157ZM3.41699 20.4313C3.41699 27.271 8.96168 32.8157 15.8014 32.8157V31.6157C9.62442 31.6157 4.61699 26.6082 4.61699 20.4313H3.41699ZM8.52271 10.4106C5.4296 12.661 3.41699 16.3111 3.41699 20.4313H4.61699C4.61699 16.7112 6.43262 13.4152 9.2287 11.3809L8.52271 10.4106ZM9.32583 10.499L8.92743 10.047L8.02718 10.8404L8.42558 11.2925L9.32583 10.499Z" fill="#1C2B49" fill-opacity="0.9" mask="url(#path-1-inside-1)"/>
<path d="M6.01953 10.7805L9.02943 10.4043L8.65319 13.4144" stroke="#1C2B49" stroke-opacity="0.9" stroke-width="0.6" stroke-linecap="round" stroke-linejoin="round"/>
<path d="M7.52402 6.26719L5.2666 4.00977" stroke="#1C2B49" stroke-opacity="0.9" stroke-width="0.6" stroke-linecap="round" stroke-linejoin="round"/>
<path d="M12.0376 4.00989L11.2852 1" stroke="#1C2B49" stroke-opacity="0.9" stroke-width="0.6" stroke-linecap="round" stroke-linejoin="round"/>
<path d="M17.3066 4.00989L18.0591 1" stroke="#1C2B49" stroke-opacity="0.9" stroke-width="0.6" stroke-linecap="round" stroke-linejoin="round"/>
<mask id="path-7-inside-2" fill="white">
<path fill-rule="evenodd" clip-rule="evenodd" d="M31.0016 20.4318C31.0016 14.6355 27.7574 9.59702 22.9858 7.03292L23.2033 6.46875C28.1994 9.12293 31.6016 14.3801 31.6016 20.4318C31.6016 20.4732 31.6014 20.5146 31.6011 20.556L31.0014 20.502C31.0015 20.4786 31.0016 20.4552 31.0016 20.4318ZM8.43075 33.7296C3.76049 31.1356 0.6 26.1528 0.6 20.4318C0.6 20.3335 0.600933 20.2355 0.60279 20.1376L0.00130387 20.2267C0.000435497 20.295 0 20.3633 0 20.4318C0 26.3574 3.26182 31.5211 8.0879 34.2255L8.43075 33.7296Z"/>
</mask>
<path d="M22.9858 7.03292L22.4259 6.81705C22.3171 7.09923 22.4354 7.41829 22.7018 7.56144L22.9858 7.03292ZM23.2033 6.46875L23.4848 5.93888C23.3332 5.85834 23.1544 5.8466 22.9935 5.90662C22.8327 5.96665 22.7053 6.0927 22.6435 6.25288L23.2033 6.46875ZM31.6011 20.556L31.5472 21.1536C31.7143 21.1686 31.8799 21.1131 32.0042 21.0004C32.1284 20.8878 32.1998 20.7283 32.2011 20.5606L31.6011 20.556ZM31.0014 20.502L30.4014 20.4993C30.4 20.8108 30.6373 21.0716 30.9476 21.0995L31.0014 20.502ZM8.43075 33.7296L8.92428 34.0708C9.02058 33.9315 9.05353 33.758 9.01502 33.5931C8.97651 33.4282 8.87011 33.2873 8.72208 33.205L8.43075 33.7296ZM0.60279 20.1376L1.20268 20.149C1.20603 19.9726 1.13155 19.8036 0.999042 19.6871C0.866539 19.5705 0.689453 19.5182 0.514897 19.5441L0.60279 20.1376ZM0.00130387 20.2267L-0.0865889 19.6332C-0.377943 19.6763 -0.594901 19.9246 -0.598648 20.2191L0.00130387 20.2267ZM8.0879 34.2255L7.79459 34.7489C8.06461 34.9002 8.40541 34.8213 8.58143 34.5667L8.0879 34.2255ZM22.7018 7.56144C27.2866 10.0252 30.4016 14.8652 30.4016 20.4318H31.6016C31.6016 14.4059 28.2282 9.16888 23.2698 6.50439L22.7018 7.56144ZM22.6435 6.25288L22.4259 6.81705L23.5456 7.24879L23.7631 6.68462L22.6435 6.25288ZM32.2016 20.4318C32.2016 14.1494 28.6691 8.69304 23.4848 5.93888L22.9218 6.99862C27.7297 9.55282 31.0016 14.6107 31.0016 20.4318H32.2016ZM32.2011 20.5606C32.2014 20.5177 32.2016 20.4748 32.2016 20.4318H31.0016C31.0016 20.4717 31.0014 20.5115 31.0011 20.5514L32.2011 20.5606ZM31.6549 19.9584L31.0552 19.9044L30.9476 21.0995L31.5472 21.1536L31.6549 19.9584ZM30.4016 20.4318C30.4016 20.4543 30.4015 20.4768 30.4014 20.4993L31.6014 20.5047C31.6015 20.4804 31.6016 20.4561 31.6016 20.4318H30.4016ZM8.72208 33.205C4.23461 30.7126 1.2 25.9262 1.2 20.4318H0C0 26.3794 3.28637 31.5586 8.13941 34.2541L8.72208 33.205ZM1.2 20.4318C1.2 20.3373 1.2009 20.243 1.20268 20.149L0.0028976 20.1262C0.000968658 20.2279 0 20.3297 0 20.4318H1.2ZM0.514897 19.5441L-0.0865889 19.6332L0.0891967 20.8202L0.690682 20.7312L0.514897 19.5441ZM-0.598648 20.2191C-0.599548 20.2899 -0.6 20.3608 -0.6 20.4318H0.6C0.6 20.3659 0.600419 20.3 0.601255 20.2343L-0.598648 20.2191ZM-0.6 20.4318C-0.6 26.5832 2.78681 31.9427 7.79459 34.7489L8.3812 33.7021C3.73683 31.0995 0.6 26.1316 0.6 20.4318H-0.6ZM7.93721 33.3884L7.59436 33.8843L8.58143 34.5667L8.92428 34.0708L7.93721 33.3884Z" fill="#1C2B49" fill-opacity="0.9" mask="url(#path-7-inside-2)"/>
<mask id="path-9-inside-3" fill="white">
<path fill-rule="evenodd" clip-rule="evenodd" d="M12.0391 22.7682H14.0477L14.1271 23.1142C14.3045 23.8865 14.9552 24.4701 15.7864 24.4701C16.764 24.4701 17.4754 23.695 17.4754 22.7285C17.4754 21.7295 16.8027 20.9725 15.8419 20.9725C15.1489 20.9725 14.6475 21.3074 14.3501 21.7999L14.1758 22.0885L12.3451 21.5315L13.5001 15.2969H18.8974V17.4099H15.1735L14.8649 19.0798C15.2007 18.968 15.5811 18.9027 15.9945 18.9027C18.1159 18.9027 19.5632 20.6592 19.5632 22.8872C19.5632 24.9628 17.9167 26.5831 15.7864 26.5831C13.8294 26.5831 12.1008 25.0995 12.0513 23.2313L12.0391 22.7682ZM14.7695 19.5963C14.5797 19.6791 14.4136 19.7784 14.2743 19.8871L14.8153 16.9592H18.4638V15.7476H13.8581L12.8454 21.2141L13.9829 21.5602C14.3575 20.94 14.9956 20.5217 15.8419 20.5217C17.0627 20.5217 17.9089 21.5025 17.9089 22.7285C17.9089 23.9401 17.0072 24.9209 15.7864 24.9209C14.7459 24.9209 13.9274 24.1853 13.7055 23.2189H12.4847C12.4887 23.3717 12.5064 23.5222 12.5366 23.6696C12.8175 25.0391 14.1832 26.1324 15.7864 26.1324C17.7008 26.1324 19.1297 24.6901 19.1297 22.8872C19.1297 20.8679 17.8396 19.3534 15.9945 19.3534C15.523 19.3534 15.1086 19.4483 14.7695 19.5963Z"/>
</mask>
<path d="M12.0391 22.7682V22.1682C11.8772 22.1682 11.7222 22.2336 11.6092 22.3496C11.4963 22.4655 11.435 22.6222 11.4393 22.784L12.0391 22.7682ZM14.0477 22.7682L14.6324 22.6339C14.5698 22.3613 14.3273 22.1682 14.0477 22.1682V22.7682ZM14.1271 23.1142L13.5424 23.2485L13.5424 23.2485L14.1271 23.1142ZM14.3501 21.7999L13.8365 21.4897L14.3501 21.7999ZM14.1758 22.0885L14.0011 22.6625C14.2639 22.7425 14.5474 22.6338 14.6894 22.3987L14.1758 22.0885ZM12.3451 21.5315L11.7551 21.4222C11.6995 21.7224 11.8783 22.0166 12.1704 22.1055L12.3451 21.5315ZM13.5001 15.2969V14.6969C13.2109 14.6969 12.9628 14.9032 12.9101 15.1876L13.5001 15.2969ZM18.8974 15.2969H19.4974C19.4974 14.9655 19.2287 14.6969 18.8974 14.6969V15.2969ZM18.8974 17.4099V18.0099C19.2287 18.0099 19.4974 17.7413 19.4974 17.4099H18.8974ZM15.1735 17.4099V16.8099C14.8841 16.8099 14.636 17.0164 14.5835 17.3009L15.1735 17.4099ZM14.8649 19.0798L14.2749 18.9708C14.2363 19.1795 14.3109 19.3931 14.471 19.5325C14.6312 19.6718 14.853 19.7162 15.0544 19.6491L14.8649 19.0798ZM12.0513 23.2313L12.6511 23.2154L12.0513 23.2313ZM14.7695 19.5963L14.5295 19.0464L14.5295 19.0464L14.7695 19.5963ZM14.2743 19.8871L13.6843 19.7781C13.639 20.0231 13.7499 20.2707 13.9629 20.4C14.1759 20.5293 14.4467 20.5135 14.6432 20.3603L14.2743 19.8871ZM14.8153 16.9592V16.3592C14.526 16.3592 14.2779 16.5656 14.2253 16.8501L14.8153 16.9592ZM18.4638 16.9592V17.5592C18.7952 17.5592 19.0638 17.2905 19.0638 16.9592H18.4638ZM18.4638 15.7476H19.0638C19.0638 15.4162 18.7952 15.1476 18.4638 15.1476V15.7476ZM13.8581 15.7476V15.1476C13.5689 15.1476 13.3208 15.3539 13.2681 15.6383L13.8581 15.7476ZM12.8454 21.2141L12.2554 21.1048C12.1998 21.405 12.3786 21.6992 12.6707 21.7881L12.8454 21.2141ZM13.9829 21.5602L13.8083 22.1342C14.071 22.2142 14.3545 22.1055 14.4965 21.8704L13.9829 21.5602ZM13.7055 23.2189L14.2903 23.0846C14.2277 22.8121 13.9851 22.6189 13.7055 22.6189V23.2189ZM12.4847 23.2189V22.6189C12.3228 22.6189 12.1678 22.6843 12.0548 22.8003C11.9419 22.9163 11.8806 23.073 11.8849 23.2348L12.4847 23.2189ZM12.5366 23.6696L11.9489 23.7902L12.5366 23.6696ZM14.7119 22.9799L14.6324 22.6339L13.4629 22.9025L13.5424 23.2485L14.7119 22.9799ZM15.7864 23.8701C15.2609 23.8701 14.8328 23.506 14.7119 22.9799L13.5424 23.2485C13.7763 24.2671 14.6495 25.0701 15.7864 25.0701V23.8701ZM16.8754 22.7285C16.8754 23.3907 16.4062 23.8701 15.7864 23.8701V25.0701C17.1219 25.0701 18.0754 23.9993 18.0754 22.7285H16.8754ZM15.8419 21.5725C16.4238 21.5725 16.8754 22.0113 16.8754 22.7285H18.0754C18.0754 21.4477 17.1815 20.3725 15.8419 20.3725V21.5725ZM14.8637 22.1101C15.0593 21.7861 15.3719 21.5725 15.8419 21.5725V20.3725C14.9259 20.3725 14.2358 20.8286 13.8365 21.4897L14.8637 22.1101ZM14.6894 22.3987L14.8637 22.1101L13.8365 21.4897L13.6622 21.7784L14.6894 22.3987ZM15.4549 19.1888L15.7635 17.5189L14.5835 17.3009L14.2749 18.9708L15.4549 19.1888ZM15.9945 18.3027C15.5178 18.3027 15.0734 18.378 14.6754 18.5105L15.0544 19.6491C15.328 19.558 15.6443 19.5027 15.9945 19.5027V18.3027ZM20.1632 22.8872C20.1632 20.4065 18.5208 18.3027 15.9945 18.3027V19.5027C17.7111 19.5027 18.9632 20.912 18.9632 22.8872H20.1632ZM15.7864 27.1831C18.2368 27.1831 20.1632 25.3054 20.1632 22.8872H18.9632C18.9632 24.6202 17.5967 25.9831 15.7864 25.9831V27.1831ZM11.4515 23.2472C11.511 25.4923 13.5587 27.1831 15.7864 27.1831V25.9831C14.1 25.9831 12.6906 24.7066 12.6511 23.2154L11.4515 23.2472ZM11.4393 22.784L11.4515 23.2472L12.6511 23.2154L12.6389 22.7523L11.4393 22.784ZM14.5295 19.0464C14.2966 19.148 14.0867 19.2725 13.9053 19.414L14.6432 20.3603C14.7406 20.2844 14.8629 20.2102 15.0094 20.1462L14.5295 19.0464ZM13.2681 15.6383L12.2554 21.1048L13.4353 21.3233L14.448 15.8569L13.2681 15.6383ZM12.6707 21.7881L13.8083 22.1342L14.1576 20.9862L13.02 20.64L12.6707 21.7881ZM14.4965 21.8704C14.7694 21.4186 15.2188 21.1217 15.8419 21.1217V19.9217C14.7725 19.9217 13.9456 20.4614 13.4693 21.25L14.4965 21.8704ZM15.8419 21.1217C16.6816 21.1217 17.3089 21.7819 17.3089 22.7285H18.5089C18.5089 21.2231 17.4437 19.9217 15.8419 19.9217V21.1217ZM17.3089 22.7285C17.3089 23.6362 16.649 24.3209 15.7864 24.3209V25.5209C17.3654 25.5209 18.5089 24.2439 18.5089 22.7285H17.3089ZM15.7864 24.3209C15.0523 24.3209 14.4558 23.8053 14.2903 23.0846L13.1207 23.3532C13.3991 24.5652 14.4396 25.5209 15.7864 25.5209V24.3209ZM11.8849 23.2348C11.8899 23.4234 11.9117 23.609 11.9489 23.7902L13.1244 23.5491C13.1011 23.4355 13.0876 23.3199 13.0845 23.203L11.8849 23.2348ZM11.9489 23.7902C12.2927 25.4663 13.9275 26.7324 15.7864 26.7324V25.5324C14.439 25.5324 13.3424 24.6118 13.1244 23.5491L11.9489 23.7902ZM15.7864 26.7324C18.022 26.7324 19.7297 25.0315 19.7297 22.8872H18.5297C18.5297 24.3486 17.3796 25.5324 15.7864 25.5324V26.7324ZM19.7297 22.8872C19.7297 20.6132 18.2427 18.7534 15.9945 18.7534V19.9534C17.4364 19.9534 18.5297 21.1226 18.5297 22.8872H19.7297ZM15.9945 18.7534C15.4425 18.7534 14.9462 18.8646 14.5295 19.0464L15.0094 20.1462C15.2709 20.0321 15.6035 19.9534 15.9945 19.9534V18.7534ZM14.0477 22.1682H12.0391V23.3682H14.0477V22.1682ZM12.1704 22.1055L14.0011 22.6625L14.3504 21.5145L12.5198 20.9574L12.1704 22.1055ZM12.9101 15.1876L11.7551 21.4222L12.935 21.6408L14.0901 15.4062L12.9101 15.1876ZM18.8974 14.6969H13.5001V15.8969H18.8974V14.6969ZM19.4974 17.4099V15.2969H18.2974V17.4099H19.4974ZM15.1735 18.0099H18.8974V16.8099H15.1735V18.0099ZM14.8643 19.9961L15.4053 17.0682L14.2253 16.8501L13.6843 19.7781L14.8643 19.9961ZM14.8153 17.5592H18.4638V16.3592H14.8153V17.5592ZM19.0638 16.9592V15.7476H17.8638V16.9592H19.0638ZM18.4638 15.1476H13.8581V16.3476H18.4638V15.1476ZM13.7055 22.6189H12.4847V23.8189H13.7055V22.6189Z" fill="#1C2B49" fill-opacity="0.9" mask="url(#path-9-inside-3)"/>
</svg>
