<svg width="1440" height="1070" viewBox="0 0 1440 1070" fill="none" xmlns="http://www.w3.org/2000/svg">
<path fill-rule="evenodd" clip-rule="evenodd" d="M1378.68 39.8037C1386.92 52.9962 1389.65 70.0503 1387.03 90.5691C1384.41 111.094 1376.46 134.91 1363.57 161.397C1337.79 214.369 1292.44 277.609 1231.42 345.878C1166.57 418.447 1084.1 496.592 988.845 574H992.807C1266.13 351.359 1433.55 122.966 1380.8 38.4798C1311.73 -72.167 879.371 71.514 449.883 339.636C326.645 416.572 207.18 496.507 101.102 574H105.342C210.662 497.187 329.069 418.006 451.207 341.757C665.823 207.776 881.1 104.924 1051.27 49.3963C1136.38 21.6264 1210.07 5.73754 1266.7 3.65002C1323.55 1.55387 1362.2 13.3944 1378.68 39.8037ZM-0.00146484 653.531V650.355C-206.838 812.342 -336.846 954.627 -294.188 1022.96C-264.292 1070.85 -152.275 1081.01 -0.00146484 1055.39V1052.85C-64.3583 1063.7 -121.456 1068.14 -168.138 1066.06C-199.993 1064.63 -226.893 1060.17 -247.906 1052.7C-268.936 1045.22 -283.842 1034.81 -292.067 1021.63C-300.247 1008.53 -301.845 992.411 -297.234 973.416C-292.615 954.385 -281.796 932.648 -265.4 908.624C-232.612 860.584 -177.896 803.927 -107.466 742.231C-74.7894 713.607 -38.7563 683.92 -0.00146484 653.531Z" fill="url(#paint0_linear)" fill-opacity="0.2"/>
<path opacity="0.2" fill-rule="evenodd" clip-rule="evenodd" d="M1464.09 212.438C1469.36 227.08 1468.5 244.338 1461.74 263.853C1454.98 283.373 1442.38 304.99 1424.42 328.176C1388.5 374.546 1331.44 426.836 1258.01 480.735C1215.97 511.589 1168.6 542.947 1116.82 574H1121.67C1352.54 434.957 1494.7 290.124 1466.45 211.592C1422.28 88.8575 984.503 170.17 508.096 341.593C31.6891 513.017 -411.447 787.208 -367.284 909.942C-344.644 972.86 -199.895 984.911 -0.000976562 958.619V956.097C-5.03217 956.76 -10.0284 957.398 -14.9885 958.012C-111.037 969.897 -193.43 972.575 -254.484 964.673C-285.017 960.722 -310.074 954.141 -328.8 944.837C-347.518 935.537 -359.702 923.629 -364.931 909.096C-370.157 894.572 -368.272 877.566 -359.61 858.341C-350.946 839.11 -335.597 817.891 -314.307 795.175C-271.735 749.751 -205.793 698.743 -123.461 646.133C41.1696 540.932 270.882 429.606 508.942 343.946C747.061 258.264 975.44 195.136 1149.74 168.755C1236.91 155.561 1310.39 151.585 1364.75 158.5C1419.33 165.443 1453.58 183.209 1464.09 212.438Z" fill="#C25A3F"/>
<defs>
<linearGradient id="paint0_linear" x1="1059.11" y1="-1.19816" x2="-734.95" y2="3.31459" gradientUnits="userSpaceOnUse">
<stop stop-color="#C25A3F"/>
<stop offset="1" stop-color="#C25A3F" stop-opacity="0.24"/>
</linearGradient>
</defs>
</svg>
