<svg width="31" height="34" viewBox="0 0 31 34" fill="none" xmlns="http://www.w3.org/2000/svg">
<path d="M4.17732 19.3832L1 14.9576L12.0518 13.1582L15.2979 17.0488M4.17732 19.3832L15.2979 21.7175M4.17732 19.3832L15.2979 17.0488M4.17732 19.3832L1 25.6081L3.78016 26.3413M15.2979 17.0488L26.8157 19.3832M15.2979 17.0488L18.7022 13.1582L29.9363 15.6383L26.8157 19.3832M26.8157 19.3832L15.2979 21.7175M26.8157 19.3832L29.5959 25.6081L26.8157 26.3413M15.2979 21.7175L11.3263 28.3315L3.78016 26.3413M15.2979 21.7175V33.0002M15.2979 21.7175L17.6342 25.6081M15.2979 33.0002L26.8157 31.0549V26.3413M15.2979 33.0002L3.78015 31.0549L3.78016 26.3413M26.8157 26.3413L19.2696 28.3315L17.6342 25.6081M17.6342 25.6081L26.0214 23.6628" stroke="#1C2B49" stroke-opacity="0.9" stroke-width="0.6" stroke-linecap="round" stroke-linejoin="round"/>
<path d="M15.2483 2.22616C14.5704 0.957822 13.2527 0.47916 12.1268 0.794091C10.981 1.1146 10.1064 2.22972 10.2472 3.97656C10.3789 5.61086 11.2784 7.09547 12.2455 8.25132C13.2166 9.41192 14.2836 10.2737 14.8034 10.6646C15.1002 10.8878 15.4962 10.8878 15.793 10.6646C16.3128 10.2737 17.3798 9.41192 18.3509 8.25132C19.318 7.09547 20.2175 5.61086 20.3492 3.97656C20.49 2.22972 19.6154 1.11448 18.4696 0.793803C17.3437 0.478703 16.026 0.957198 15.3481 2.22556C15.3323 2.25517 15.3154 2.2839 15.298 2.30894C15.2834 2.28784 15.2668 2.2607 15.2483 2.22616Z" stroke="#1C2B49" stroke-opacity="0.9" stroke-width="0.6" stroke-linecap="round" stroke-linejoin="round"/>
</svg>
