<svg width="360" height="397" viewBox="0 0 360 397" fill="none" xmlns="http://www.w3.org/2000/svg">
<path fill-rule="evenodd" clip-rule="evenodd" d="M357.822 15.7061C360.623 20.1933 361.628 26.1147 360.688 33.4865C359.747 40.8643 356.874 49.5196 352.141 59.2448C342.675 78.6929 325.974 102.006 303.411 127.251C282.117 151.077 255.678 176.54 225.341 202H229.223C322.718 123.026 378.633 44.3217 359.942 14.3822C334.344 -26.6218 174.119 26.6242 14.9577 125.986C-24.9879 150.923 -63.8637 176.711 -99.2859 202H-94.9774C-60.3818 177.404 -22.5653 152.358 16.2816 128.107C95.7346 78.5055 175.397 40.4527 238.312 19.9236C269.788 9.65293 296.938 3.81317 317.714 3.0473C338.721 2.27284 352.204 6.70754 357.822 15.7061ZM-152 244.498V241.32C-228.512 301.272 -276.576 353.918 -260.783 379.215C-249.72 396.936 -208.309 400.716 -152 391.272V388.737C-175.779 392.747 -196.832 394.382 -214.001 393.614C-225.714 393.091 -235.515 391.453 -243.105 388.754C-250.712 386.049 -255.872 382.361 -258.663 377.891C-261.407 373.494 -262.024 367.984 -260.383 361.226C-258.734 354.431 -254.837 346.554 -248.815 337.731C-236.777 320.092 -216.617 299.199 -190.55 276.365C-178.804 266.075 -165.882 255.412 -152 244.498Z" fill="url(#paint0_linear)" fill-opacity="0.2"/>
<path opacity="0.2" fill-rule="evenodd" clip-rule="evenodd" d="M389.328 79.3822C391.122 84.3676 390.878 90.3762 388.45 97.3879C386.02 104.405 381.454 112.264 374.861 120.776C361.674 137.799 340.658 157.078 313.505 177.007C302.24 185.277 289.935 193.645 276.721 201.999H281.38C356.532 153.92 401.419 105.602 391.68 78.5357C375.314 33.0523 213.079 63.1855 36.5305 126.712C-24.2338 148.577 -83.5375 174.953 -134.521 201.999H-129.165C-79.2518 175.79 -21.6353 150.299 37.3769 129.065C125.567 97.3316 210.095 73.9725 274.548 64.217C306.797 59.3358 333.863 57.886 353.795 60.4216C373.947 62.9851 385.759 69.4658 389.328 79.3822ZM-152 214.338V211.479C-239.567 260.048 -297.948 309.329 -287.871 337.333C-279.491 360.625 -225.955 365.106 -152 355.404V352.882C-153.849 353.126 -155.686 353.36 -157.51 353.586C-193.048 357.983 -223.431 358.959 -245.868 356.055C-257.091 354.603 -266.187 352.196 -272.91 348.856C-279.625 345.519 -283.764 341.364 -285.519 336.487C-287.27 331.62 -286.703 325.759 -283.593 318.857C-280.481 311.949 -274.919 304.23 -267.091 295.879C-251.444 279.183 -227.131 260.362 -196.667 240.896C-182.926 232.115 -167.957 223.217 -152 214.338Z" fill="#C25A3F"/>
<defs>
<linearGradient id="paint0_linear" x1="240.726" y1="-0.321818" x2="-424.123" y2="1.35054" gradientUnits="userSpaceOnUse">
<stop stop-color="#C25A3F"/>
<stop offset="1" stop-color="#C25A3F" stop-opacity="0.24"/>
</linearGradient>
</defs>
</svg>
