<svg width="1440" height="990" viewBox="0 0 1440 990" fill="none" xmlns="http://www.w3.org/2000/svg">
<rect width="1441" height="990" transform="matrix(1 0 0 -1 -1 990)" fill="#1C2B49"/>
<mask id="mask0" mask-type="alpha" maskUnits="userSpaceOnUse" x="0" y="0" width="1440" height="990">
<rect width="1440" height="990" transform="matrix(1 0 0 -1 0 990)" fill="#1C2B49"/>
<rect x="1.25" y="-1.25" width="1437.5" height="987.5" transform="matrix(1 0 0 -1 0 987.5)" stroke="white" stroke-opacity="0.7" stroke-width="2.5"/>
</mask>
<g mask="url(#mask0)">
<path d="M-6.50184 82.5585C-104.001 69.483 -32.502 665.351 -6.50184 663.857C19.4983 662.362 346.998 602.493 607.998 441.574C827.407 306.297 1034.5 0.369812 1034.5 0.369812L421.498 -11.0005C421.498 -11.0005 470.998 144.685 346.998 242.5C222.998 340.314 90.9977 95.634 -6.50184 82.5585Z" fill="#1C2B49" stroke="white" stroke-opacity="0.7" stroke-width="3"/>
<path d="M1120 1009.8C1120 1009.8 487.499 1063 289.999 1063C92.4988 1063 457.499 909 338.499 787.147C219.499 665.294 462.999 589.5 558.499 669C653.999 748.5 597.571 869.772 742.499 875.5C868.999 880.5 1120 1009.8 1120 1009.8Z" fill="#1C2B49" stroke="white" stroke-opacity="0.7" stroke-width="3"/>
<path d="M1181.5 -15.0005L1418 -0.00366211C1366.02 232.229 1420.99 352.363 1612.5 555.521C1612.5 555.521 1687 705.766 1248.5 578C810.002 450.234 1181.5 -15.0005 1181.5 -15.0005Z" fill="#1C2B49" stroke="white" stroke-opacity="0.7" stroke-width="3"/>
<path d="M215.5 843.182C215.5 756.526 139.993 705.33 45 705.33C-49.993 705.33 -145 777.073 -145 863.73C-145 950.386 -67.993 1038.57 27 1038.57C121.993 1038.57 215.5 929.839 215.5 843.182Z" fill="#1C2B49"/>
<path d="M214 843.182C214 800.34 195.356 766.309 164.958 742.949C134.525 719.562 92.244 706.83 45 706.83C-2.13579 706.83 -49.3068 724.637 -84.68 753.2C-120.057 781.767 -143.5 820.973 -143.5 863.73C-143.5 949.636 -67.0882 1037.07 27 1037.07C73.9396 1037.07 120.694 1010.18 155.772 972.351C190.853 934.521 214 886.021 214 843.182Z" stroke="white" stroke-opacity="0.7" stroke-width="3"/>
<path d="M391.5 -107.964C391.5 -194.621 315.993 -245.817 221 -245.817C126.007 -245.817 -0.5 -157.636 -0.5 -70.9791C-0.5 15.6775 105 82.5638 221 73.5986C347.823 63.7969 391.5 -21.3074 391.5 -107.964Z" fill="#1C2B49"/>
<path d="M390 -107.964C390 -150.806 371.356 -184.838 340.958 -208.197C310.525 -231.584 268.244 -244.317 221 -244.317C173.911 -244.317 118.845 -222.433 75.5321 -189.698C32.1753 -156.929 1 -113.608 1 -70.9791C1 -28.3091 26.9742 9.65942 67.5645 35.9083C108.146 62.1514 163.19 76.562 220.884 72.103C283.953 67.2287 326.168 43.6577 352.639 10.6986C379.138 -22.2949 390 -64.8693 390 -107.964Z" stroke="white" stroke-opacity="0.7" stroke-width="3"/>
<path d="M1450.5 1120.01V701.221C1450.5 701.221 1274.5 597.738 1016.5 599.606C758.498 601.474 763.999 701.221 763.999 701.221C763.999 701.221 749.368 761.821 816.995 809.934C933.199 892.607 1187.49 797.232 1281.49 920.142C1375.49 1043.05 1450.5 1120.01 1450.5 1120.01Z" fill="#1C2B49" stroke="white" stroke-opacity="0.7" stroke-width="3"/>
</g>
</svg>
