<svg width="1395" height="950" viewBox="0 0 1395 950" fill="none" xmlns="http://www.w3.org/2000/svg">
<path fill-rule="evenodd" clip-rule="evenodd" d="M1396.23 213.584C1399.95 198.48 1399.37 185.583 1394.4 175.122C1384.45 154.175 1356.77 141.949 1313.89 138.6C1271.24 135.268 1214.55 140.811 1148.22 154.299C1015.6 181.267 844.979 239.879 672.14 321.944C499.223 404.045 334.203 493.944 217.739 574.409C159.486 614.656 113.513 652.453 84.7645 685.652C70.3874 702.255 60.4259 717.587 55.3412 731.391C50.2699 745.159 50.1039 757.234 55.0249 767.598C59.9832 778.041 70.1492 787.075 85.2348 794.482C100.304 801.882 120.067 807.55 143.843 811.374C191.391 819.022 254.578 819.231 327.366 811.519C472.921 796.098 656.431 749.049 829.145 667.044C1001.93 585.004 1153.92 483.597 1257.38 391.633C1309.12 345.64 1348.63 302.093 1372.55 264.59C1384.51 245.837 1392.51 228.692 1396.23 213.584ZM830.217 669.303C1176.17 505.045 1438.98 263.175 1396.66 174.05C1354.34 84.9248 1017.02 155.428 671.068 319.685C325.119 483.943 10.4497 679.545 52.7666 768.67C95.0834 857.796 484.268 833.56 830.217 669.303Z" fill="url(#paint0_linear)" fill-opacity="0.2"/>
<path opacity="0.2" fill-rule="evenodd" clip-rule="evenodd" d="M1437.4 350.142C1444.13 336.145 1446.23 323.398 1443.58 312.116C1438.3 289.609 1414.44 273.37 1374.06 263.432C1333.89 253.546 1278.39 250.165 1211.77 252.526C1078.57 257.246 901.541 284.885 715.215 328.631C528.95 372.362 346.742 436.097 213.97 500.858C147.567 533.248 93.65 565.835 57.7813 596.232C39.8427 611.434 26.5262 625.998 18.3972 639.617C10.2714 653.231 7.45131 665.683 10.0713 676.842C12.6938 688.012 20.6837 697.9 33.8625 706.457C47.049 715.02 65.2351 722.115 87.8003 727.721C132.921 738.931 195.005 744.057 268.184 743.448C414.503 742.23 604.638 718.094 790.907 674.361C977.117 630.643 1146.16 563.423 1265.77 495.192C1325.6 461.069 1372.95 426.754 1403.9 395.079C1419.38 379.241 1430.67 364.145 1437.4 350.142ZM791.479 676.795C1164.31 589.263 1468.57 407.594 1446.02 311.545C1423.47 215.495 1087.47 238.665 714.643 326.197C341.817 413.729 -14.913 581.364 7.63752 677.414C30.1881 773.463 418.652 764.327 791.479 676.795Z" fill="#C25A3F"/>
<defs>
<linearGradient id="paint0_linear" x1="1158.37" y1="116.364" x2="-190.082" y2="-35.6826" gradientUnits="userSpaceOnUse">
<stop stop-color="#C25A3F"/>
<stop offset="1" stop-color="#C25A3F" stop-opacity="0.24"/>
</linearGradient>
</defs>
</svg>
