<svg width="1440" height="1230" viewBox="0 0 1440 1230" fill="none" xmlns="http://www.w3.org/2000/svg">
<path d="M-6.50248 1127.42C-104.07 1143.67 -32.5207 403.346 -6.50248 405.203C19.5157 407.059 402.635 523.844 608.424 681.372C827.986 849.443 1035.22 1229.53 1035.22 1229.53H410.287C410.287 1229.53 456.319 1090.29 312.719 949.652C169.119 809.014 91.0648 1111.18 -6.50248 1127.42Z" stroke="#F5DBD2" stroke-width="3"/>
<path d="M-110.256 1144.22C-207.824 1160.47 -136.275 420.147 -110.256 422.003C-84.2382 423.86 298.881 540.645 504.67 698.173C724.232 866.244 931.466 1246.34 931.466 1246.34H306.533C306.533 1246.34 352.565 1107.09 208.965 966.453C65.3654 825.815 -12.6891 1127.98 -110.256 1144.22Z" fill="#F5DBD2" fill-opacity="0.5" stroke="#F5DBD2" stroke-width="3"/>
<path d="M1120.78 -24.6016H280.195C82.5576 -24.6016 378.763 105.128 338.735 252.032C298.708 398.936 418.791 460.9 538.374 485.036C657.957 509.172 629.511 237.238 778.04 169.414C907.13 110.466 1120.78 -24.6016 1120.78 -24.6016Z" fill="#F46853"/>
<path d="M1085.25 1230H1418.98C1366.97 941.47 1421.97 792.212 1613.62 539.805C1613.62 539.805 1613.62 354.609 1174.82 513.348C736.011 672.087 1085.25 1230 1085.25 1230Z" fill="#F46853"/>
<path d="M188.25 165.184C188.25 216.488 170.254 257.239 140.988 285.166C111.717 313.098 71.118 328.25 25.8308 328.25C-64.6618 328.25 -155.25 243.332 -155.25 140.767C-155.25 89.447 -136.883 37.6642 -107.192 -1.27845C-77.4984 -40.2246 -36.5467 -66.25 8.60471 -66.25C53.7128 -66.25 98.6167 -34.1697 132.292 10.9241C165.952 55.9972 188.25 113.89 188.25 165.184Z" stroke="#FAE2C7" stroke-width="1.5"/>
<path d="M165 161.037C165 202.268 150.536 234.988 127.039 257.403C103.535 279.824 70.923 292 34.5187 292C-38.1807 292 -111 223.772 -111 141.368C-111 100.116 -96.2298 58.4859 -72.3561 27.1825C-48.4788 -4.12572 -15.5852 -25 20.638 -25C56.8035 -25 92.884 0.725897 119.988 37.0092C147.072 73.2649 165 119.819 165 161.037Z" fill="#FAE2C7" fill-opacity="0.5" stroke="#FAE2C7" stroke-width="2"/>
<path d="M1451.5 -161.527V358.786C1451.5 358.786 1275.38 487.356 1017.2 485.035C759.024 482.714 761.524 390.348 761.524 371.782C761.523 353.216 749.888 283.495 817.562 223.718C933.847 121.003 1188.32 239.499 1282.38 86.7934C1376.45 -65.9123 1451.5 -161.527 1451.5 -161.527Z" fill="#F46853"/>
<path d="M391.022 1364.14C391.022 1417.79 372.202 1460.4 341.592 1489.61C310.977 1518.82 268.516 1534.66 221.154 1534.66C173.88 1534.66 118.641 1507.4 75.193 1466.63C31.7481 1425.86 0.25 1371.74 0.25 1318.19C0.25 1211.05 105.349 1128.2 221.082 1139.31C284.311 1145.37 326.759 1174.73 353.425 1215.95C380.111 1257.2 391.022 1310.39 391.022 1364.14Z" stroke="#FAE2C7" stroke-width="1.5"/>
<path d="M414.272 1385.58C414.272 1439.17 395.475 1481.71 364.92 1510.87C334.357 1540.03 291.96 1555.85 244.654 1555.85C197.465 1555.85 142.284 1528.63 98.8641 1487.89C55.4479 1447.15 24 1393.09 24 1339.63C24 1232.67 128.941 1149.9 244.558 1161C307.711 1167.06 350.091 1196.37 376.715 1237.53C403.366 1278.73 414.272 1331.86 414.272 1385.58Z" fill="#FAE2C7" fill-opacity="0.5" stroke="#FAE2C7" stroke-width="2"/>
</svg>
