<svg width="360" height="120" viewBox="0 0 360 120" fill="none" xmlns="http://www.w3.org/2000/svg">
<path d="M-163.721 113.753C-163.721 113.753 -125.665 103.664 -87.4539 103.664C-49.2428 103.664 -35.2169 110.343 -18.1479 113.753C-6.54537 116.071 12.505 116.568 30.2734 111.98C84.5671 97.9613 89.3691 1.00002 101.9 1C114.431 0.999976 121.982 97.3272 161.614 111.98C187.241 121.455 198.818 105.639 225.661 111.98C244.61 116.457 256.694 107.357 276.093 109.935C286.01 111.253 291.272 111.196 301 111.98C320.5 113.553 329.013 117.763 339 118C353.272 118.339 363 111.98 363 111.98" stroke="#C25A3F" stroke-opacity="0.24" stroke-width="2"/>
<path d="M-163.721 113.753C-163.721 113.753 -125.665 103.664 -87.4539 103.664C-51.1897 103.664 -36.7089 109.68 -20.7368 113.207L25.7775 113.03C27.2817 112.715 28.7821 112.365 30.2734 111.98C84.5671 97.9613 89.3691 1.00002 101.9 1C114.431 0.999976 121.982 97.3272 161.614 111.98C162.114 112.165 162.609 112.34 163.098 112.506L196.883 112.377C205.196 110.656 213.984 109.222 225.661 111.98C226.088 112.081 226.512 112.175 226.932 112.263L247.724 112.184C256.549 110.739 265.159 108.482 276.093 109.935C286.01 111.253 301 111.98 301 111.98L247.724 112.184C241.244 113.244 234.649 113.867 226.932 112.263L196.883 112.377C186.46 114.536 176.784 117.146 163.098 112.506L25.7775 113.03C9.35959 116.472 -7.5192 115.876 -18.1479 113.753C-19.0176 113.579 -19.8794 113.397 -20.7368 113.207L-163.721 113.753Z" fill="url(#paint0_linear)" fill-opacity="0.3"/>
<path d="M-242 113.908C-242 113.908 -203.944 109.231 -165.732 109.231C-127.521 109.231 -113.495 112.327 -96.4265 113.908C-84.8239 114.982 -65.7736 115.213 -48.0051 113.086C6.28852 106.588 11.0906 61.6436 23.6213 61.6436C36.1521 61.6435 43.7034 106.294 83.3359 113.086C108.963 117.478 120.539 110.147 147.382 113.086C166.331 115.161 178.416 110.943 197.815 112.138C207.731 112.749 223.959 115.601 223.959 115.601C258.303 120.958 272.922 115.704 292.027 114.198C311.133 112.691 314.269 113.606 328.5 114.198C343.577 114.824 367 117.5 367 117.5" stroke="#FAE2C7" stroke-width="2"/>
<defs>
<linearGradient id="paint0_linear" x1="68.6392" y1="-94.4504" x2="68.6393" y2="121.976" gradientUnits="userSpaceOnUse">
<stop stop-color="#F5DBD2"/>
<stop offset="1" stop-color="#F5DBD2" stop-opacity="0"/>
</linearGradient>
</defs>
</svg>
