<svg width="1440" height="382" viewBox="0 0 1440 382" fill="none" xmlns="http://www.w3.org/2000/svg">
<path d="M-28 366.422C-28 366.422 95 333.814 218.5 333.814C342 333.814 387.332 355.402 442.5 366.422C480 373.913 541.572 375.522 599 360.694C774.48 315.383 790 2.00008 830.5 2C871 1.99992 895.406 313.334 1023.5 360.694C1106.33 391.317 1143.74 340.196 1230.5 360.694C1291.74 375.163 1330.8 345.75 1393.5 354.084C1425.55 358.344 1474 360.694 1474 360.694" stroke="#C25A3F" stroke-opacity="0.24" stroke-width="2.5"/>
<path d="M-28 366.422C-28 366.422 95 333.814 218.5 333.814C335.708 333.814 382.51 353.258 434.133 364.66L584.469 364.086C589.331 363.067 594.18 361.938 599 360.694C774.48 315.383 790 2.00008 830.5 2C871 1.99992 895.406 313.334 1023.5 360.694C1025.12 361.291 1026.71 361.857 1028.3 362.393L1137.49 361.977C1164.36 356.413 1192.76 351.777 1230.5 360.694C1231.88 361.02 1233.25 361.324 1234.61 361.607L1301.81 361.35C1330.33 356.681 1358.16 349.386 1393.5 354.084C1425.55 358.344 1474 360.694 1474 360.694L1301.81 361.35C1280.87 364.779 1259.55 366.792 1234.61 361.607L1137.49 361.977C1103.8 368.954 1072.53 377.39 1028.3 362.393L584.469 364.086C531.406 375.21 476.853 373.284 442.5 366.422C439.689 365.861 436.904 365.272 434.133 364.66L-28 366.422Z" fill="url(#paint0_linear)" fill-opacity="0.3"/>
<path d="M-281 366.921C-281 366.921 -158 351.806 -34.5 351.806C89 351.806 134.332 361.812 189.5 366.921C227 370.393 288.572 371.139 346 364.265C521.48 343.263 537 198 577.5 198C618 198 642.406 342.313 770.5 364.265C853.327 378.46 890.743 354.764 977.5 364.265C1038.74 370.972 1077.8 357.338 1140.5 361.201C1172.55 363.176 1225 372.392 1225 372.392C1336 389.708 1383.25 372.725 1445 367.857" stroke="#FAE2C7" stroke-width="2.5"/>
<defs>
<linearGradient id="paint0_linear" x1="723" y1="-306.5" x2="723" y2="393" gradientUnits="userSpaceOnUse">
<stop stop-color="#F5DBD2"/>
<stop offset="1" stop-color="#F5DBD2" stop-opacity="0"/>
</linearGradient>
</defs>
</svg>
