<svg width="58" height="55" viewBox="0 0 58 55" fill="none" xmlns="http://www.w3.org/2000/svg">
<circle cx="27.5" cy="27.5" r="27.5" fill="#F5DBD2" fill-opacity="0.55"/>
<path d="M43.7522 29.5312V34.4959" stroke="#1C2B49" stroke-opacity="0.9" stroke-width="0.8" stroke-linecap="round" stroke-linejoin="round"/>
<path d="M36.9824 37.6553H41.0444" stroke="#1C2B49" stroke-opacity="0.9" stroke-width="0.8" stroke-linecap="round" stroke-linejoin="round"/>
<path d="M42.8496 25.0177V5.15929M40.1416 49.8407H11.2566M13.0619 17.3451H38.7876M13.0619 22.3097H38.7876M13.0619 27.2743H36.531M42.8496 5.15929V2H9V49.8407H11.2566M42.8496 5.15929H46.0089V25.0177M46.0089 50.7434V53H11.2566V49.8407" stroke="#1C2B49" stroke-opacity="0.9" stroke-width="0.8" stroke-linecap="round" stroke-linejoin="round"/>
<circle cx="44.2035" cy="37.6549" r="12.6885" stroke="#1C2B49" stroke-opacity="0.9" stroke-width="0.8" stroke-linecap="round" stroke-linejoin="round"/>
<circle cx="44.2035" cy="37.6544" r="2.75929" stroke="#1C2B49" stroke-opacity="0.9" stroke-width="0.8" stroke-linecap="round" stroke-linejoin="round"/>
<path d="M27.0531 6.06152H24.3452V8.76949H21.6372V11.4775H24.3452V14.1854H27.0531V11.4775H29.7611V8.76949H27.0531V6.06152Z" stroke="#1C2B49" stroke-opacity="0.9" stroke-width="0.8" stroke-linecap="round" stroke-linejoin="round"/>
</svg>
