<svg width="1440" height="52" viewBox="0 0 1440 52" fill="none" xmlns="http://www.w3.org/2000/svg">
<path d="M0 49.0131C0 49.0131 36.0845 53.4256 58.5 49.0131C87.3786 43.3282 104 17.5131 117.5 17.5131C131 17.5131 143 49.0131 200 49.0131C257 49.0131 499 49.4891 531 49.0131C563 48.5371 557.253 30.8037 576 32.0131C592.046 33.0482 597.448 48.0813 613.5 49.0131C626.974 49.7952 635 38.0131 640.5 38.0131C644.5 38.0131 652.5 49.0131 660.5 49.0131C668.5 49.0131 1247.5 49.014 1271.5 49.0131C1295.5 49.0121 1303.5 1.49983 1317.5 1.5C1331.5 1.50017 1330 49.0131 1382.5 49.0131C1435 49.0131 1478.5 49.0131 1478.5 49.0131" stroke="#F5DBD2" stroke-width="2"/>
<path d="M58.5 49.0131C36.0845 53.4256 0 49.0131 0 49.0131H58.5C87.3786 43.3282 104 17.5131 117.5 17.5131C131 17.5131 143 49.0131 200 49.0131H531C563 48.5371 557.253 30.8037 576 32.0131C592.046 33.0482 597.448 48.0813 613.5 49.0131H616.059C628.007 48.3138 635.357 38.0131 640.5 38.0131C644.5 38.0131 652.5 49.0131 660.5 49.0131H1271.5C1295.5 49.0121 1303 1.49983 1317 1.5C1331 1.50017 1330 49.0131 1382.5 49.0131H1271.5C1249.85 49.014 776.733 49.0132 678.268 49.0131L660.5 49.0131H616.059C615.228 49.0617 614.376 49.0639 613.5 49.0131H531C499 49.4891 257 49.0131 200 49.0131H58.5Z" fill="url(#paint0_linear)"/>
<path d="M660.5 49.0131L678.268 49.0131C776.733 49.0132 1249.85 49.014 1271.5 49.0131H660.5Z" fill="url(#paint1_linear)"/>
<defs>
<linearGradient id="paint0_linear" x1="739.25" y1="-21" x2="739.25" y2="50.9742" gradientUnits="userSpaceOnUse">
<stop stop-color="#F5DBD2"/>
<stop offset="1" stop-color="#F5DBD2" stop-opacity="0"/>
</linearGradient>
<linearGradient id="paint1_linear" x1="739.25" y1="-21" x2="739.25" y2="50.9742" gradientUnits="userSpaceOnUse">
<stop stop-color="#F5DBD2"/>
<stop offset="1" stop-color="#F5DBD2" stop-opacity="0"/>
</linearGradient>
</defs>
</svg>
