<svg width="69" height="55" viewBox="0 0 69 55" fill="none" xmlns="http://www.w3.org/2000/svg">
<circle cx="35.4961" cy="27.5" r="27.5" fill="#FAE2C7" fill-opacity="0.55"/>
<path d="M7.18809 39.8946L62.049 39.419C63.1523 39.4094 64.0395 38.5081 64.0316 37.4046L63.8885 17.5795C63.8825 16.737 63.1976 16.0573 62.3551 16.0575L32.3737 16.0668L6.95591 16.0747C5.84313 16.075 4.94462 16.9836 4.95664 18.0963L4.96769 19.1183L5.17086 37.9163C5.18278 39.0192 6.08523 39.9042 7.18809 39.8946Z" fill="#FAE2C7" fill-opacity="0.1" stroke="#1C2B49" stroke-opacity="0.9" stroke-width="0.8" stroke-linecap="round" stroke-linejoin="round"/>
<path d="M59.356 27.5479L9.04447 27.5253" stroke="#1C2B49" stroke-opacity="0.9" stroke-width="0.8" stroke-linecap="round" stroke-linejoin="round"/>
<circle cx="43.7104" cy="22.0622" r="2.25" transform="rotate(90.057 43.7104 22.0622)" fill="#FAE2C7"/>
<circle cx="43.7104" cy="22.0622" r="1.85" transform="rotate(90.057 43.7104 22.0622)" stroke="#1C2B49" stroke-opacity="0.9" stroke-width="0.8"/>
<circle cx="37.6279" cy="21.9919" r="2.25" transform="rotate(90.057 37.6279 21.9919)" fill="#FAE2C7"/>
<circle cx="37.6279" cy="21.9919" r="1.85" transform="rotate(90.057 37.6279 21.9919)" stroke="#1C2B49" stroke-opacity="0.9" stroke-width="0.8"/>
<circle cx="55.7104" cy="22.0739" r="2.25" transform="rotate(90.057 55.7104 22.0739)" fill="#FAE2C7"/>
<circle cx="55.7104" cy="22.0739" r="1.85" transform="rotate(90.057 55.7104 22.0739)" stroke="#1C2B49" stroke-opacity="0.9" stroke-width="0.8"/>
<circle cx="49.6279" cy="22.0046" r="2.25" transform="rotate(90.057 49.6279 22.0046)" fill="#FAE2C7"/>
<circle cx="49.6279" cy="22.0046" r="1.85" transform="rotate(90.057 49.6279 22.0046)" stroke="#1C2B49" stroke-opacity="0.9" stroke-width="0.8"/>
<circle cx="31.5459" cy="21.9226" r="2.25" transform="rotate(90.057 31.5459 21.9226)" fill="#FAE2C7"/>
<circle cx="31.5459" cy="21.9226" r="1.85" transform="rotate(90.057 31.5459 21.9226)" stroke="#1C2B49" stroke-opacity="0.9" stroke-width="0.8"/>
<circle cx="25.4636" cy="21.8523" r="2.25" transform="rotate(90.057 25.4636 21.8523)" fill="#FAE2C7"/>
<circle cx="25.4636" cy="21.8523" r="1.85" transform="rotate(90.057 25.4636 21.8523)" stroke="#1C2B49" stroke-opacity="0.9" stroke-width="0.8"/>
<circle cx="19.3813" cy="21.7819" r="2.25" transform="rotate(90.057 19.3813 21.7819)" fill="#FAE2C7"/>
<circle cx="19.3813" cy="21.7819" r="1.85" transform="rotate(90.057 19.3813 21.7819)" stroke="#1C2B49" stroke-opacity="0.9" stroke-width="0.8"/>
<circle cx="13.2985" cy="21.7126" r="2.25" transform="rotate(90.057 13.2985 21.7126)" fill="#FAE2C7"/>
<circle cx="13.2985" cy="21.7126" r="1.85" transform="rotate(90.057 13.2985 21.7126)" stroke="#1C2B49" stroke-opacity="0.9" stroke-width="0.8"/>
<circle cx="43.7084" cy="33.3234" r="2.25" transform="rotate(90.5645 43.7084 33.3234)" fill="#FAE2C7"/>
<circle cx="43.7084" cy="33.3234" r="1.85" transform="rotate(90.5645 43.7084 33.3234)" stroke="#1C2B49" stroke-opacity="0.9" stroke-width="0.8"/>
<circle cx="37.6225" cy="33.1994" r="2.25" transform="rotate(90.5645 37.6225 33.1994)" fill="#FAE2C7"/>
<circle cx="37.6225" cy="33.1994" r="1.85" transform="rotate(90.5645 37.6225 33.1994)" stroke="#1C2B49" stroke-opacity="0.9" stroke-width="0.8"/>
<circle cx="55.7084" cy="33.4426" r="2.25" transform="rotate(90.5645 55.7084 33.4426)" fill="#FAE2C7"/>
<circle cx="55.7084" cy="33.4426" r="1.85" transform="rotate(90.5645 55.7084 33.4426)" stroke="#1C2B49" stroke-opacity="0.9" stroke-width="0.8"/>
<circle cx="49.6225" cy="33.3185" r="2.25" transform="rotate(90.5645 49.6225 33.3185)" fill="#FAE2C7"/>
<circle cx="49.6225" cy="33.3185" r="1.85" transform="rotate(90.5645 49.6225 33.3185)" stroke="#1C2B49" stroke-opacity="0.9" stroke-width="0.8"/>
<circle cx="31.5443" cy="33.0754" r="2.25" transform="rotate(90.5645 31.5443 33.0754)" fill="#FAE2C7"/>
<circle cx="31.5443" cy="33.0754" r="1.85" transform="rotate(90.5645 31.5443 33.0754)" stroke="#1C2B49" stroke-opacity="0.9" stroke-width="0.8"/>
<circle cx="25.4623" cy="32.9523" r="2.25" transform="rotate(90.5645 25.4623 32.9523)" fill="#FAE2C7"/>
<circle cx="25.4623" cy="32.9523" r="1.85" transform="rotate(90.5645 25.4623 32.9523)" stroke="#1C2B49" stroke-opacity="0.9" stroke-width="0.8"/>
<circle cx="19.3803" cy="32.8273" r="2.25" transform="rotate(90.5645 19.3803 32.8273)" fill="#FAE2C7"/>
<circle cx="19.3803" cy="32.8273" r="1.85" transform="rotate(90.5645 19.3803 32.8273)" stroke="#1C2B49" stroke-opacity="0.9" stroke-width="0.8"/>
<circle cx="13.2983" cy="32.7043" r="2.25" transform="rotate(90.5645 13.2983 32.7043)" fill="#FAE2C7"/>
<circle cx="13.2983" cy="32.7043" r="1.85" transform="rotate(90.5645 13.2983 32.7043)" stroke="#1C2B49" stroke-opacity="0.9" stroke-width="0.8"/>
<path d="M20.0052 10.4941C19.8638 10.6638 19.8867 10.916 20.0564 11.0575C20.2261 11.1989 20.4784 11.176 20.6198 11.0063L20.0052 10.4941ZM49.7763 11.1485C49.9963 11.1685 50.1909 11.0064 50.2109 10.7864L50.5368 7.20118C50.5568 6.98118 50.3947 6.78661 50.1747 6.76661C49.9547 6.74661 49.7601 6.90874 49.7401 7.12875L49.4504 10.3156L46.2635 10.0259C46.0435 10.0059 45.8489 10.168 45.8289 10.388C45.8089 10.608 45.9711 10.8026 46.1911 10.8226L49.7763 11.1485ZM20.6198 11.0063C27.9599 2.1981 42.1651 2.19798 49.5052 11.0062L50.1198 10.4941C42.4599 1.30202 27.6651 1.30216 20.0052 10.4941L20.6198 11.0063Z" fill="#1C2B49" fill-opacity="0.9"/>
<path d="M50.6547 45.6658C50.797 45.4969 50.7754 45.2445 50.6065 45.1022C50.4375 44.9599 50.1852 44.9815 50.0429 45.1504L50.6547 45.6658ZM20.8876 44.8514C20.6677 44.8302 20.4722 44.9913 20.451 45.2112L20.1058 48.7946C20.0846 49.0145 20.2457 49.21 20.4656 49.2312C20.6855 49.2523 20.8809 49.0912 20.9021 48.8714L21.209 45.6861L24.3943 45.993C24.6141 46.0142 24.8096 45.8531 24.8308 45.6332C24.852 45.4133 24.6909 45.2178 24.471 45.1967L20.8876 44.8514ZM50.0429 45.1504C42.6556 53.919 28.4505 53.8428 21.1579 44.9952L20.5405 45.504C28.151 54.7371 42.9455 54.8165 50.6547 45.6658L50.0429 45.1504Z" fill="#1C2B49" fill-opacity="0.9"/>
</svg>
