<svg width="55" height="69" viewBox="0 0 55 69" fill="none" xmlns="http://www.w3.org/2000/svg">
<circle cx="27.5" cy="33.5" r="27.5" fill="#FFF5E2" fill-opacity="0.75"/>
<path d="M19.9141 54.7078V64.9464L23.5078 66.4732L27.1016 68M19.9141 54.7078L23.5078 52.9115M19.9141 54.7078L23.5078 56.4142M27.1016 58.1206V68M27.1016 58.1206L30.875 56.4142M27.1016 58.1206L23.5078 56.4142M34.6484 54.7078V64.9464L30.875 66.4732L27.1016 68M34.6484 54.7078L30.875 52.9115M34.6484 54.7078L30.875 56.4142M23.5078 52.9115L27.1016 51.1153L30.875 52.9115M23.5078 52.9115L27.1914 54.6629M27.1914 54.6629L30.875 52.9115M27.1914 54.6629L30.875 56.4142M27.1914 54.6629L23.5078 56.4142M27.1914 54.6629V47.7024M27.1914 47.7024L51 22.1957M27.1914 47.7024L39.5 24.7105M27.1914 47.7024L17.0391 24.7105M27.1914 47.7024C27.1914 47.7024 13.7365 32.3671 5 22.1957M51 22.1957C46.2504 20.385 43.855 20.5763 39.5 24.7105M51 22.1957C49.7422 6.56836 36.8047 2.437 27.1914 1M39.5 24.7105C31.1421 18.8219 25.8438 18.6032 17.0391 24.7105M39.5 24.7105C39.8016 13.0158 36.9047 7.87032 27.1914 1M17.0391 24.7105C16.4623 21.965 6.97656 19.1421 5 22.1957M17.0391 24.7105C16.2667 15.2343 18.0521 9.99852 27.1914 1M5 22.1957C5 4.23324 27.1914 1 27.1914 1" stroke="#1C2B49" stroke-opacity="0.9" stroke-width="0.8" stroke-linecap="round" stroke-linejoin="round"/>
</svg>
