<svg width="55" height="68" viewBox="0 0 55 68" fill="none" xmlns="http://www.w3.org/2000/svg">
<circle cx="27.5" cy="34.5" r="27.5" fill="#FFF5E2" fill-opacity="0.75"/>
<path d="M3 38.3847V47.6154M3 38.3847C3 38.3847 5.30392 41.6155 21.4314 42.077C37.5588 42.5385 38.4804 38.3847 38.4804 38.3847M3 38.3847C3 38.3847 8.9902 35.6155 21.4314 36.077C24.2892 36.183 26.7337 36.362 28.8039 36.575M38.4804 38.3847V47.6154M38.4804 38.3847C38.4804 38.3847 35.7463 37.2892 28.8039 36.575M3 47.6154V61.8927C3 62.2029 3.14192 62.4931 3.40093 62.6638C4.91675 63.6627 10.7142 67 20.5098 67C30.0597 67 36.1261 64.7796 37.9215 64.0203C38.2701 63.8729 38.4804 63.5302 38.4804 63.1516V59.1538M3 47.6154C3 47.6154 8.52941 49.9232 21.4314 50.3847C34.3333 50.8461 38.4804 47.6154 38.4804 47.6154M38.4804 47.6154V52.6923M38.4804 59.1538H42.6973C43.1662 59.1538 43.5722 58.828 43.6736 58.3701L44.9314 52.6923M38.4804 59.1538V52.6923M44.9314 52.6923H38.4804M44.9314 52.6923L49.8924 2.09758C49.95 1.50955 49.488 1 48.8972 1H25.7802C25.182 1 24.7177 1.52164 24.7869 2.11579L28.8039 36.575" stroke="#1C2B49" stroke-opacity="0.9" stroke-width="0.9" stroke-linecap="round" stroke-linejoin="round"/>
<path d="M32 26.8984C33.2571 26.1086 39.8571 21.3039 43 19.0003M32 26.8984C32 26.8984 32.5084 22.9611 35.1429 20.975C37.8583 18.9278 43 19.0003 43 19.0003M32 26.8984C32 26.8984 35.9543 27.4677 38.8095 25.9113C42.1175 24.1081 43 19.0003 43 19.0003" stroke="#1C2B49" stroke-opacity="0.9" stroke-width="0.9" stroke-linecap="round" stroke-linejoin="round"/>
</svg>
