<svg width="55" height="64" viewBox="0 0 55 64" fill="none" xmlns="http://www.w3.org/2000/svg">
<circle cx="27.5" cy="27.5" r="27.5" fill="#FAE2C7" fill-opacity="0.55"/>
<path d="M7.6129 6.35669L3.94203 5.4075C3.14318 5.20094 2.452 5.99618 2.76786 6.75846L3.40323 8.29181L2.58306 9.1401C2.24582 9.48891 2.20761 10.0295 2.49242 10.4222L3.40323 11.6783L3.04616 12.4169C2.65906 13.2176 3.43157 14.0874 4.27242 13.7975L7.6129 12.6458M7.6129 6.35669C7.6129 6.35669 10.8871 1.87149 16.5 2.00283C22.1129 2.13417 24.9194 6.35669 24.9194 6.35669M7.6129 6.35669C6.3904 8.81114 6.42096 10.1882 7.6129 12.6458M7.6129 12.6458C13.2258 18.4514 20.2419 18.4514 24.9194 12.6458M24.9194 12.6458L28.6408 13.9289C29.42 14.1975 30.1714 13.4612 29.9186 12.6767L29.5968 11.6783L30.288 10.2484C30.4397 9.93461 30.4171 9.56442 30.2282 9.27143L29.5968 8.29181L30.2498 6.71579C30.5624 5.96147 29.888 5.17075 29.0938 5.36032L24.9194 6.35669M24.9194 12.6458C26.251 10.1909 26.202 8.80721 24.9194 6.35669" stroke="#1C2B49" stroke-opacity="0.9" stroke-width="0.9" stroke-linecap="round" stroke-linejoin="round"/>
<path d="M9.60859 7.77797C9.48597 7.99414 9.5618 8.26879 9.77797 8.39141C9.99414 8.51403 10.2688 8.4382 10.3914 8.22203L9.60859 7.77797ZM14.065 5.94528C14.311 5.90935 14.4812 5.68088 14.4453 5.43496C14.4094 5.18904 14.1809 5.0188 13.935 5.05472L14.065 5.94528ZM10.3914 8.22203C11.0265 7.10244 12.4987 6.17406 14.065 5.94528L13.935 5.05472C12.1533 5.31496 10.4079 6.36888 9.60859 7.77797L10.3914 8.22203Z" fill="#1C2B49" fill-opacity="0.9"/>
<path d="M17.8678 13.7461C17.6305 13.672 17.4982 13.4197 17.5723 13.1824C17.6463 12.9452 17.8987 12.8129 18.1359 12.887L17.8678 13.7461ZM22.7065 10.3334C22.7894 10.0991 23.0465 9.97634 23.2808 10.0592C23.5151 10.1421 23.6379 10.3992 23.555 10.6335L22.7065 10.3334ZM18.1359 12.887C18.9906 13.1538 19.9939 12.9057 20.8876 12.3547C21.7832 11.8026 22.4683 11.0069 22.7065 10.3334L23.555 10.6335C23.2294 11.554 22.3753 12.4948 21.3599 13.1208C20.3427 13.7479 19.0634 14.1193 17.8678 13.7461L18.1359 12.887Z" fill="#1C2B49" fill-opacity="0.9"/>
<path d="M47.4766 15.1803L47.813 15.7498C48.093 16.2237 47.9374 16.8346 47.4649 17.1169L42.234 20.242M47.4766 15.1803L51.6318 14.465C52.3047 14.3492 52.6662 13.608 52.3431 13.0064L50.8023 10.1374C50.493 9.56142 49.7233 9.4323 49.243 9.8758L46.0723 12.8033M47.4766 15.1803L46.0723 12.8033M46.0723 12.8033L46.0218 12.7177C45.7399 12.2405 45.1237 12.0836 44.6479 12.3679L39.4255 15.4879M14.2426 31.8197L14.187 31.7256C13.907 31.2517 14.0626 30.6408 14.5351 30.3585L20.234 26.9537M14.2426 31.8197L10.2656 32.9016C9.62865 33.0749 9.33137 33.8068 9.66712 34.3752L11.1556 36.8947C11.4869 37.4556 12.2576 37.555 12.7204 37.0964L15.6468 34.1967M14.2426 31.8197L15.6468 34.1967M15.6468 34.1967L15.9782 34.7577C16.2601 35.2349 16.8763 35.3918 17.3521 35.1075L22.8553 31.8197M22.8553 31.8197L20.234 26.9537M22.8553 31.8197L42.234 20.242M20.234 26.9537L39.4255 15.4879M42.234 20.242L39.4255 15.4879" stroke="#1C2B49" stroke-opacity="0.9" stroke-width="0.9" stroke-linecap="round" stroke-linejoin="round"/>
<path d="M23.971 55.8498L24.7882 56.7285C25.1643 57.133 25.7971 57.156 26.2015 56.7799L41.1615 42.8685M23.971 55.8498L22.1462 60.3029C21.8024 61.142 20.6088 61.1269 20.2863 60.2793L19.8355 59.0946L17.9767 59.1005C17.2954 59.1026 16.8115 58.4378 17.0229 57.7902L17.4385 56.5169L15.9921 55.7721C15.1798 55.3539 15.3075 54.1553 16.1896 53.9175L20.9748 52.6276M23.971 55.8498L20.9748 52.6276M20.9748 52.6276L20.1576 51.7489C19.7815 51.3444 19.8045 50.7117 20.2089 50.3356L21.9176 48.7466M39.1081 35.7654L38.2909 34.8866C37.9148 34.4822 37.2821 34.4592 36.8776 34.8353L21.9176 48.7466M39.1081 35.7654L40.8355 30.8178C41.1236 29.9927 42.257 29.9081 42.6643 30.6813L43.2927 31.8741L44.9179 31.869C45.4576 31.8673 45.9013 32.2941 45.9204 32.8335L45.9893 34.7741L47.1475 35.1652C48.0356 35.4651 48.06 36.7123 47.1844 37.0468L42.1044 38.9876M39.1081 35.7654L42.1044 38.9876M42.1044 38.9876L42.9215 39.8663C43.2976 40.2708 43.2746 40.9035 42.8702 41.2796L41.1615 42.8685M41.1615 42.8685L37.8656 39.3242M21.9176 48.7466L25.2136 52.291" stroke="#1C2B49" stroke-opacity="0.9" stroke-width="0.9" stroke-linecap="round" stroke-linejoin="round"/>
</svg>
