<svg width="55" height="67" viewBox="0 0 55 67" fill="none" xmlns="http://www.w3.org/2000/svg">
<circle cx="27.5" cy="33.5" r="27.5" fill="#F5DBD2" fill-opacity="0.55"/>
<path d="M50.6607 9.96805L41.3391 64.0333C41.1517 65.1201 40.1198 65.8502 39.0326 65.6651L20.5 62.5106L16.4427 63.1797C15.3649 63.3574 14.3439 62.6375 14.1493 61.5626L4.35663 7.46998C4.15973 6.38231 4.88247 5.34116 5.97034 5.14534L26.9799 1.36362C28.087 1.16434 29.1406 1.91697 29.3111 3.02886L29.5 4.26087L49.0324 7.65782C50.1196 7.84688 50.8482 8.88066 50.6607 9.96805Z" fill="#F5DBD2" fill-opacity="0.1"/>
<path d="M29.5 4.26087V4.26087C28.6699 4.1165 27.8789 4.66908 27.7288 5.49816L22.3879 35M29.5 4.26087L49.0324 7.65782C50.1196 7.84688 50.8482 8.88066 50.6607 9.96805L41.3391 64.0333C41.1517 65.1202 40.1198 65.8502 39.0326 65.6651L20.5 62.5106M29.5 4.26087L29.3111 3.02886C29.1406 1.91697 28.087 1.16434 26.9799 1.36362L5.97034 5.14534C4.88247 5.34116 4.15973 6.38231 4.35663 7.46998L14.1493 61.5626C14.3439 62.6375 15.3649 63.3574 16.4427 63.1797L20.5 62.5106M20.5 62.5106L19.4924 62.3391C18.3954 62.1524 17.6618 61.1062 17.86 60.0112L22.3879 35M22.3879 35L17.5 7.5" stroke="#1C2B49" stroke-opacity="0.9" stroke-width="0.8" stroke-linecap="round" stroke-linejoin="round"/>
<path d="M38.5 10.5L29.5 60" stroke="#1C2B49" stroke-opacity="0.9" stroke-width="0.8" stroke-linecap="round" stroke-linejoin="round"/>
<circle cx="12.75" cy="16.25" r="2.25" fill="#F5DBD2"/>
<circle cx="12.75" cy="16.25" r="1.85" stroke="#1C2B49" stroke-opacity="0.9" stroke-width="0.8"/>
<circle cx="11.75" cy="10.25" r="2.25" fill="#F5DBD2"/>
<circle cx="11.75" cy="10.25" r="1.85" stroke="#1C2B49" stroke-opacity="0.9" stroke-width="0.8"/>
<circle cx="23.75" cy="8.25" r="2.25" fill="#F5DBD2"/>
<circle cx="23.75" cy="8.25" r="1.85" stroke="#1C2B49" stroke-opacity="0.9" stroke-width="0.8"/>
<circle cx="30.3098" cy="24.9121" r="2.25" transform="rotate(10.3361 30.3098 24.9121)" fill="#F5DBD2"/>
<circle cx="30.3098" cy="24.9121" r="1.85" transform="rotate(10.3361 30.3098 24.9121)" stroke="#1C2B49" stroke-opacity="0.9" stroke-width="0.8"/>
<circle cx="29.1574" cy="30.8848" r="2.25" transform="rotate(10.3361 29.1574 30.8848)" fill="#F5DBD2"/>
<circle cx="29.1574" cy="30.8848" r="1.85" transform="rotate(10.3361 29.1574 30.8848)" stroke="#1C2B49" stroke-opacity="0.9" stroke-width="0.8"/>
<circle cx="32.4621" cy="13.1074" r="2.25" transform="rotate(10.3361 32.4621 13.1074)" fill="#F5DBD2"/>
<circle cx="32.4621" cy="13.1074" r="1.85" transform="rotate(10.3361 32.4621 13.1074)" stroke="#1C2B49" stroke-opacity="0.9" stroke-width="0.8"/>
<circle cx="31.3098" cy="19.0791" r="2.25" transform="rotate(10.3361 31.3098 19.0791)" fill="#F5DBD2"/>
<circle cx="31.3098" cy="19.0791" r="1.85" transform="rotate(10.3361 31.3098 19.0791)" stroke="#1C2B49" stroke-opacity="0.9" stroke-width="0.8"/>
<circle cx="28.0012" cy="36.8564" r="2.25" transform="rotate(10.3361 28.0012 36.8564)" fill="#F5DBD2"/>
<circle cx="28.0012" cy="36.8564" r="1.85" transform="rotate(10.3361 28.0012 36.8564)" stroke="#1C2B49" stroke-opacity="0.9" stroke-width="0.8"/>
<circle cx="26.8488" cy="42.8291" r="2.25" transform="rotate(10.3361 26.8488 42.8291)" fill="#F5DBD2"/>
<circle cx="26.8488" cy="42.8291" r="1.85" transform="rotate(10.3361 26.8488 42.8291)" stroke="#1C2B49" stroke-opacity="0.9" stroke-width="0.8"/>
<circle cx="25.6926" cy="48.8008" r="2.25" transform="rotate(10.3361 25.6926 48.8008)" fill="#F5DBD2"/>
<circle cx="25.6926" cy="48.8008" r="1.85" transform="rotate(10.3361 25.6926 48.8008)" stroke="#1C2B49" stroke-opacity="0.9" stroke-width="0.8"/>
<circle cx="24.5403" cy="54.7744" r="2.25" transform="rotate(10.3361 24.5403 54.7744)" fill="#F5DBD2"/>
<circle cx="24.5403" cy="54.7744" r="1.85" transform="rotate(10.3361 24.5403 54.7744)" stroke="#1C2B49" stroke-opacity="0.9" stroke-width="0.8"/>
<circle cx="41.3881" cy="26.929" r="2.25" transform="rotate(10.8436 41.3881 26.929)" fill="#F5DBD2"/>
<circle cx="41.3881" cy="26.929" r="1.85" transform="rotate(10.8436 41.3881 26.929)" stroke="#1C2B49" stroke-opacity="0.9" stroke-width="0.8"/>
<circle cx="40.185" cy="32.8909" r="2.25" transform="rotate(10.8436 40.185 32.8909)" fill="#F5DBD2"/>
<circle cx="40.185" cy="32.8909" r="1.85" transform="rotate(10.8436 40.185 32.8909)" stroke="#1C2B49" stroke-opacity="0.9" stroke-width="0.8"/>
<circle cx="43.6459" cy="15.1429" r="2.25" transform="rotate(10.8436 43.6459 15.1429)" fill="#F5DBD2"/>
<circle cx="43.6459" cy="15.1429" r="1.85" transform="rotate(10.8436 43.6459 15.1429)" stroke="#1C2B49" stroke-opacity="0.9" stroke-width="0.8"/>
<circle cx="42.4428" cy="21.1048" r="2.25" transform="rotate(10.8436 42.4428 21.1048)" fill="#F5DBD2"/>
<circle cx="42.4428" cy="21.1048" r="1.85" transform="rotate(10.8436 42.4428 21.1048)" stroke="#1C2B49" stroke-opacity="0.9" stroke-width="0.8"/>
<circle cx="38.974" cy="38.8519" r="2.25" transform="rotate(10.8436 38.974 38.8519)" fill="#F5DBD2"/>
<circle cx="38.974" cy="38.8519" r="1.85" transform="rotate(10.8436 38.974 38.8519)" stroke="#1C2B49" stroke-opacity="0.9" stroke-width="0.8"/>
<circle cx="37.7709" cy="44.8138" r="2.25" transform="rotate(10.8436 37.7709 44.8138)" fill="#F5DBD2"/>
<circle cx="37.7709" cy="44.8138" r="1.85" transform="rotate(10.8436 37.7709 44.8138)" stroke="#1C2B49" stroke-opacity="0.9" stroke-width="0.8"/>
<circle cx="36.56" cy="50.7757" r="2.25" transform="rotate(10.8436 36.56 50.7757)" fill="#F5DBD2"/>
<circle cx="36.56" cy="50.7757" r="1.85" transform="rotate(10.8436 36.56 50.7757)" stroke="#1C2B49" stroke-opacity="0.9" stroke-width="0.8"/>
<circle cx="13.75" cy="22.25" r="2.25" fill="#F5DBD2"/>
<circle cx="13.75" cy="22.25" r="1.85" stroke="#1C2B49" stroke-opacity="0.9" stroke-width="0.8"/>
<circle cx="14.75" cy="28.25" r="2.25" fill="#F5DBD2"/>
<circle cx="14.75" cy="28.25" r="1.85" stroke="#1C2B49" stroke-opacity="0.9" stroke-width="0.8"/>
<circle cx="15.75" cy="34.25" r="2.25" fill="#F5DBD2"/>
<circle cx="15.75" cy="34.25" r="1.85" stroke="#1C2B49" stroke-opacity="0.9" stroke-width="0.8"/>
<circle cx="16.75" cy="40.25" r="2.25" fill="#F5DBD2"/>
<circle cx="16.75" cy="40.25" r="1.85" stroke="#1C2B49" stroke-opacity="0.9" stroke-width="0.8"/>
<circle cx="17.75" cy="46.25" r="2.25" fill="#F5DBD2"/>
<circle cx="17.75" cy="46.25" r="1.85" stroke="#1C2B49" stroke-opacity="0.9" stroke-width="0.8"/>
</svg>
