<svg width="60" height="61" viewBox="0 0 60 61" fill="none" xmlns="http://www.w3.org/2000/svg">
<circle cx="30.5" cy="30.5" r="27.5" fill="#F5DBD2" fill-opacity="0.55"/>
<path d="M30.336 24.2269C29.1456 21.9997 26.836 21.1638 24.8669 21.7147C22.8678 22.2739 21.3282 24.2212 21.5765 27.3018C21.8093 30.1909 23.4006 32.8221 25.1208 34.878C26.847 36.9409 28.7443 38.4735 29.6687 39.1686C30.1677 39.5438 30.8323 39.5438 31.3313 39.1686C32.2558 38.4735 34.153 36.9409 35.8792 34.878C37.5994 32.8221 39.1907 30.1909 39.4235 27.3018C39.6718 24.2212 38.1323 22.2736 36.1332 21.7141C34.164 21.163 31.8544 21.9986 30.664 24.2258C30.6236 24.3014 30.5777 24.377 30.5293 24.4368C30.5181 24.4506 30.5081 24.462 30.4993 24.4713C30.4623 24.4316 30.406 24.3579 30.336 24.2269Z" stroke="#1C2B49" stroke-opacity="0.9" stroke-width="0.9" stroke-linecap="round" stroke-linejoin="round"/>
<path d="M58.5182 32L59.0761 31.1476C59.3257 30.7663 59.2859 30.2645 58.9793 29.9273L54.9277 25.4704C54.6667 25.1834 54.5953 24.7713 54.7445 24.4131L56.6296 19.889C56.8364 19.3927 56.6137 18.8217 56.1256 18.5964L51.0809 16.2681C50.7268 16.1047 50.5 15.7502 50.5 15.3602V10C50.5 9.44772 50.0523 9 49.5 9H44.618C44.2393 9 43.893 8.786 43.7236 8.44721L41.3879 3.77573C41.1653 3.33062 40.6493 3.11689 40.1772 3.27426L35.5229 4.82571C35.1974 4.93421 34.839 4.86825 34.5734 4.65098L30.2004 1.07307C29.8028 0.747746 29.2234 0.776645 28.8601 1.13992L25.4257 4.57426C25.1638 4.83618 24.7786 4.93187 24.4245 4.82294L19.3679 3.26705C18.8756 3.11558 18.3488 3.36279 18.1507 3.83821L16.2564 8.38462C16.1011 8.75726 15.737 9 15.3333 9H10C9.44772 9 9 9.44772 9 10V15.3602C9 15.7502 8.77321 16.1047 8.41906 16.2681L3.43678 18.5676C2.92421 18.8042 2.70894 19.4179 2.96141 19.9228L5.19356 24.3871C5.37826 24.7565 5.31688 25.2014 5.03908 25.507L1.17604 29.7564C0.803224 30.1665 0.835058 30.8016 1.24702 31.1723L4.95212 34.5069C5.2779 34.8001 5.37478 35.2713 5.19111 35.6693L2.94733 40.5308C2.70514 41.0555 2.95689 41.6757 3.49631 41.8832L8.35898 43.7535C8.74517 43.902 9 44.273 9 44.6868V50.5C9 51.0523 9.44772 51.5 10 51.5H15.3132C15.727 51.5 16.098 51.7548 16.2465 52.141L18.141 57.0667C18.3393 57.5821 18.9179 57.8393 19.4333 57.641L24.3579 55.747C24.7446 55.5982 25.183 55.7034 25.4602 56.0113L28.8277 59.753C29.1984 60.1649 29.8335 60.1968 30.2436 59.824L34.5438 55.9147C34.8235 55.6605 35.2226 55.5856 35.5754 55.7213L40.7465 57.7102C41.1861 57.8793 41.6842 57.7186 41.9421 57.3245L43 55.7083M58.5182 32H53.2208C52.7903 32 52.4082 32.2754 52.2721 32.6838L50.6774 37.4679C50.5672 37.7984 50.293 38.0478 49.9535 38.1261L44.895 39.2935C44.3889 39.4103 44.0564 39.8951 44.1299 40.4093L44.9233 45.9631C44.9711 46.298 44.8464 46.6344 44.5919 46.8571L41.5088 49.5548C41.2014 49.8238 41.0885 50.2526 41.2235 50.638L43 55.7083M58.5182 32L43 55.7083" stroke="#1C2B49" stroke-opacity="0.9" stroke-width="0.9" stroke-linecap="round" stroke-linejoin="round"/>
</svg>
