<svg width="55" height="58" viewBox="0 0 55 58" fill="none" xmlns="http://www.w3.org/2000/svg">
<circle cx="27.5" cy="29.5" r="27.5" fill="#FFF5E2" fill-opacity="0.75"/>
<path d="M4 9.33058L12.7549 1L51 15.8099M4 9.33058V41.7273L42.2451 57M4 9.33058L42.2451 24.1405M4 9.33058C4 9.33058 7.22549 17.6612 19.6667 24.1405C32.1078 30.6198 42.2451 24.1405 42.2451 24.1405M51 15.8099V48.6694M51 15.8099L42.2451 24.1405M51 15.8099C51 15.8099 49.6176 25.0661 46.8529 25.9917C44.0882 26.9174 42.2451 24.1405 42.2451 24.1405M51 48.6694L42.2451 57M51 48.6694C51 48.6694 50.5392 44.0413 48.2353 44.0413C45.9314 44.0413 42.2451 57 42.2451 57M42.2451 57V24.1405M30.2647 43.1157V47.7438L38.5588 50.9835V46.3554L30.2647 43.1157Z" stroke="#1C2B49" stroke-opacity="0.9" stroke-width="0.8" stroke-linecap="round" stroke-linejoin="round"/>
</svg>
