<svg width="1440" height="474" viewBox="0 0 1440 474" fill="none" xmlns="http://www.w3.org/2000/svg">
<path d="M143.23 353.515C52.6427 281.231 -160 319.224 -160 319.224V247.996C-160 247.996 39.2091 273.643 151.812 247.996C231.303 229.89 239.457 171.289 325.359 173.075C403.069 174.69 393.062 228.998 449.321 239.022C505.581 249.047 664.26 183.694 803.09 197.872C894.348 207.192 927.473 239.239 1016.69 247.996C1186.03 264.619 1322.66 158.256 1441.97 184.682C1561.29 211.108 1441.97 392.035 1441.97 392.035C1441.97 392.035 1206.5 301.039 1034.8 300.23C872.362 299.464 786.42 390.932 624.775 382.006C497.326 374.968 475.893 294.405 348.245 300.23C260.088 304.253 233.818 425.798 143.23 353.515Z" fill="#F5DBD2" fill-opacity="0.21"/>
<path d="M-157.221 147.923C-157.221 147.923 -99.993 220.042 -54.0542 239.61C31.7202 276.146 81.0489 154.197 170.538 184.114C247.446 209.824 212.786 301.742 292.159 321.214C361.96 338.337 390.826 279.881 462.272 279.995C543.356 280.124 586.632 348.312 663.78 333.756C739.742 319.423 716.413 235.597 792.07 220.568C880.487 203.004 927.277 304.926 1018.62 295.342C1111.86 285.561 1095.7 161.382 1190.85 174.619C1302.76 190.189 1452.78 402.609 1452.78 402.609" stroke="#F5DBD2" stroke-width="2.5" stroke-linecap="round" stroke-linejoin="round"/>
</svg>
