<svg width="1193" height="950" viewBox="0 0 1193 950" fill="none" xmlns="http://www.w3.org/2000/svg">
<path opacity="0.4" fill-rule="evenodd" clip-rule="evenodd" d="M1396.23 213.584C1399.95 198.48 1399.37 185.583 1394.4 175.122C1384.45 154.175 1356.77 141.949 1313.89 138.6C1271.24 135.268 1214.55 140.811 1148.22 154.299C1015.6 181.267 844.979 239.879 672.14 321.944C499.222 404.045 334.203 493.944 217.738 574.409C159.486 614.656 113.512 652.453 84.764 685.652C70.3869 702.255 60.4253 717.587 55.3407 731.391C50.2694 745.159 50.1033 757.234 55.0244 767.598C59.9827 778.041 70.1486 787.075 85.2342 794.482C100.303 801.882 120.066 807.55 143.843 811.374C191.39 819.022 254.577 819.231 327.366 811.519C472.921 796.098 656.43 749.049 829.144 667.044C1001.93 585.004 1153.92 483.597 1257.38 391.633C1309.12 345.64 1348.63 302.093 1372.55 264.59C1384.51 245.837 1392.51 228.692 1396.23 213.584ZM830.216 669.303C1176.17 505.045 1438.98 263.175 1396.66 174.05C1354.34 84.9248 1017.02 155.428 671.068 319.685C325.118 483.943 10.4492 679.545 52.766 768.67C95.0828 857.796 484.267 833.56 830.216 669.303Z" fill="#F5DBD2"/>
<path opacity="0.4" fill-rule="evenodd" clip-rule="evenodd" d="M1437.4 350.142C1444.13 336.145 1446.23 323.398 1443.58 312.116C1438.3 289.609 1414.44 273.37 1374.06 263.432C1333.89 253.546 1278.39 250.165 1211.77 252.526C1078.57 257.246 901.54 284.885 715.214 328.631C528.949 372.362 346.741 436.097 213.969 500.858C147.566 533.248 93.6493 565.835 57.7806 596.232C39.842 611.434 26.5255 625.998 18.3965 639.617C10.2707 653.231 7.45061 665.683 10.0706 676.842C12.6931 688.012 20.683 697.9 33.8617 706.457C47.0483 715.02 65.2344 722.115 87.7996 727.721C132.92 738.931 195.004 744.057 268.183 743.448C414.502 742.23 604.638 718.094 790.907 674.361C977.116 630.643 1146.16 563.423 1265.77 495.192C1325.6 461.069 1372.95 426.754 1403.9 395.079C1419.37 379.242 1430.67 364.145 1437.4 350.142ZM791.478 676.795C1164.3 589.263 1468.57 407.594 1446.01 311.545C1423.46 215.495 1087.47 238.665 714.643 326.197C341.816 413.729 -14.9137 581.364 7.63682 677.414C30.1874 773.463 418.652 764.327 791.478 676.795Z" fill="#F5DBD2"/>
</svg>
