<svg width="44" height="46" viewBox="0 0 44 46" fill="none" xmlns="http://www.w3.org/2000/svg">
<circle cx="22" cy="24" r="22" fill="#F5DBD2" fill-opacity="0.75"/>
<path d="M30.836 22.808C30.9013 22.808 30.9503 22.906 30.983 23.102C31.0483 23.2653 31.081 23.4613 31.081 23.69C31.081 23.9187 31.0483 24.131 30.983 24.327C30.9503 24.523 30.9013 24.621 30.836 24.621H23.682V31.775C23.682 31.8403 23.5677 31.9057 23.339 31.971C23.1103 32.0037 22.8653 32.02 22.604 32.02C22.0813 32.02 21.82 31.971 21.82 31.873V24.621H14.666C14.6007 24.621 14.5353 24.523 14.47 24.327C14.4373 24.0983 14.421 23.8697 14.421 23.641C14.421 23.445 14.4373 23.2653 14.47 23.102C14.5027 22.906 14.5517 22.808 14.617 22.808H21.82V15.654C21.82 15.5887 21.918 15.5397 22.114 15.507C22.31 15.4417 22.5223 15.409 22.751 15.409C22.9797 15.409 23.192 15.4417 23.388 15.507C23.584 15.5397 23.682 15.5887 23.682 15.654V22.808H30.836Z" fill="#C25A3F"/>
</svg>
