<svg width="678" height="539" viewBox="0 0 678 539" fill="none" xmlns="http://www.w3.org/2000/svg">
<path fill-rule="evenodd" clip-rule="evenodd" d="M791.282 120.945C793.356 112.531 792.995 105.484 790.316 99.842C784.946 88.5315 769.81 81.6276 745.519 79.7303C721.46 77.8512 689.404 80.976 651.808 88.621C576.654 103.903 479.913 137.131 381.889 183.673C283.787 230.252 190.2 281.239 124.176 326.855C91.1447 349.676 65.144 371.064 48.9192 389.801C40.8038 399.173 35.2418 407.76 32.4193 415.423C29.6101 423.049 29.5687 429.586 32.2019 435.132C34.8724 440.756 40.4063 445.738 48.8452 449.882C57.2673 454.017 68.369 457.21 81.7995 459.37C108.654 463.689 144.408 463.815 185.659 459.445C268.14 450.706 372.159 424.04 470.058 377.557C568.032 331.039 654.192 273.547 712.816 221.435C742.141 195.369 764.48 170.733 777.979 149.568C784.729 138.984 789.206 129.366 791.282 120.945ZM471.13 379.815C667.449 286.603 816.588 149.346 792.574 98.7697C768.56 48.193 577.136 88.202 380.817 181.415C184.498 274.627 5.92966 385.628 29.9436 436.204C53.9575 486.781 274.811 473.028 471.13 379.815Z" fill="url(#paint0_linear)" fill-opacity="0.2"/>
<path opacity="0.2" fill-rule="evenodd" clip-rule="evenodd" d="M814.722 198.229C818.471 190.43 819.579 183.454 818.15 177.365C815.304 165.244 802.355 156.168 779.49 150.541C756.839 144.966 725.462 143.044 687.693 144.383C612.202 147.058 511.815 162.727 406.116 187.543C300.479 212.344 197.158 248.488 121.897 285.197C84.2497 303.56 53.7442 322.007 33.4884 339.173C23.3563 347.759 15.8967 355.935 11.3682 363.522C6.84292 371.104 5.36682 377.879 6.76766 383.845C8.17096 389.823 12.4687 395.228 19.8048 399.992C27.1487 404.76 37.3416 408.75 50.0852 411.916C75.5628 418.245 110.691 421.154 152.179 420.808C235.118 420.118 342.935 406.434 448.576 381.632C554.158 356.843 649.987 318.733 717.765 280.071C751.668 260.732 778.443 241.317 795.909 223.442C804.643 214.504 810.97 206.033 814.722 198.229ZM449.147 384.066C660.719 334.393 833.38 231.3 820.583 176.794C807.786 122.288 617.116 135.436 405.545 185.109C193.974 234.782 -8.46312 329.911 4.33384 384.417C17.1308 438.923 237.576 433.739 449.147 384.066Z" fill="#C25A3F"/>
<defs>
<linearGradient id="paint0_linear" x1="657.351" y1="66.034" x2="-107.868" y2="-20.2491" gradientUnits="userSpaceOnUse">
<stop stop-color="#C25A3F"/>
<stop offset="1" stop-color="#C25A3F" stop-opacity="0.24"/>
</linearGradient>
</defs>
</svg>
