<svg width="30" height="30" viewBox="0 0 30 30" fill="none" xmlns="http://www.w3.org/2000/svg">
<path d="M30 15C30 23.2843 23.2843 30 15 30C6.71573 30 0 23.2843 0 15C0 6.71573 6.71573 0 15 0C23.2843 0 30 6.71573 30 15Z" fill="#F5DBD2" fill-opacity="0.75"/>
<path d="M20.8235 14.3451C20.8706 14.3451 20.9059 14.4159 20.9294 14.5575C20.9765 14.6755 21 14.8171 21 14.9823C21 15.1475 20.9765 15.3009 20.9294 15.4425C20.9059 15.5841 20.8706 15.6549 20.8235 15.6549H15.6706V20.823C15.6706 20.8702 15.5882 20.9174 15.4235 20.9646C15.2588 20.9882 15.0824 21 14.8941 21C14.5176 21 14.3294 20.9646 14.3294 20.8938V15.6549H9.17647C9.12941 15.6549 9.08235 15.5841 9.03529 15.4425C9.01176 15.2773 9 15.1121 9 14.9469C9 14.8053 9.01176 14.6755 9.03529 14.5575C9.05882 14.4159 9.09412 14.3451 9.14118 14.3451H14.3294V9.17699C14.3294 9.12979 14.4 9.0944 14.5412 9.0708C14.6824 9.0236 14.8353 9 15 9C15.1647 9 15.3176 9.0236 15.4588 9.0708C15.6 9.0944 15.6706 9.12979 15.6706 9.17699V14.3451H20.8235Z" fill="#C25A3F"/>
</svg>
