<svg width="205" height="97" viewBox="0 0 205 97" fill="none" xmlns="http://www.w3.org/2000/svg">
<path d="M36.3738 67.7606C42.6028 66.6127 44.6664 65.4683 46.7851 64.1117C48.1024 63.2701 49.5395 62.1397 50.7292 61.0112M36.3738 67.7606C30.5839 66.7694 27.2254 63.0076 22.842 64.9998C21.5577 65.585 20.596 66.4607 19.8924 67.3043C19.4069 67.8863 18.6197 68.1807 17.9603 67.8072C16.9777 67.2506 15.657 66.2135 15.0177 64.446C14.6087 63.3151 14.6203 62.275 14.7123 61.5546C14.7634 61.1548 14.9978 60.8083 15.327 60.5756C18.4752 58.3505 24.349 54.8748 31.8509 54.1574C39.6868 53.4086 47.0643 55.6546 48.2305 56.0989C49.3967 56.5432 49.0151 58.0106 48.3995 58.7346C47.8381 59.3947 46.9202 59.4379 43.8713 59.2397C42.5377 59.1528 40.9105 59.0521 38.926 58.851M36.3738 67.7606C37.0485 67.8762 37.7562 67.954 38.5023 67.9808C46.7557 68.2865 55.0243 63.2984 56.8147 60.6503M50.7292 61.0112C52.4258 59.4017 53.6191 57.7957 53.2439 57.0355C53.0007 56.542 52.0797 56.3741 51.4972 56.4059C50.4349 56.4636 49.7465 57.222 49.5696 57.4286C48.329 58.9482 46.9571 60.2595 45.3983 61.2172M50.7292 61.0112C50.7292 61.0112 54.9191 58.0802 56.6685 59.0626M45.3983 61.2172C43.8163 62.189 42.0417 62.7966 40.0164 62.8876C37.1558 62.9552 35.079 61.0975 33.4165 58.9532C33.3591 58.8792 33.2969 58.8097 33.227 58.7474C32.7419 58.3154 31.7775 57.5888 30.3673 57.3178C27.934 56.8451 26.0576 58.0897 25.6757 58.3552M45.3983 61.2172C43.8009 61.0318 41.9822 60.572 40.6366 60.1378C40.0336 59.9432 39.433 59.4279 38.926 58.851M45.3983 61.2172C45.4145 61.219 45.4306 61.2209 45.4467 61.2227M38.926 58.851C38.2904 58.1278 37.8018 57.3079 37.6397 56.9022M56.8147 60.6503C57.098 60.2313 57.2191 59.8709 57.1523 59.5993C57.1006 59.3955 56.9487 59.267 56.851 59.1869C56.7936 59.14 56.7327 59.0986 56.6685 59.0626M56.8147 60.6503C56.9337 60.5804 58.3538 59.7727 59.437 60.459C59.5099 60.5045 60.2288 60.9748 60.1879 61.5891C60.1578 62.0754 59.6617 62.4784 58.8969 62.8533C56.4135 64.0625 48.2659 66.3217 46.9502 66.6848M56.8147 60.6503C56.8127 60.6515 56.811 60.6524 56.8097 60.6532M56.6685 59.0626C57.2748 58.6365 58.048 58.6489 58.5403 59.0603C59.0552 59.4882 59.0405 60.1629 59.0383 60.253M56.6685 59.0626C56.6673 59.0634 56.6661 59.0643 56.6649 59.0651" stroke="#1C2B49" stroke-width="0.8" stroke-miterlimit="10" stroke-linecap="round" stroke-linejoin="round"/>
<path d="M36.6526 29.6665C26.5329 22.4445 19.659 36.9277 34.7527 47.2223C36.3796 48.3319 38.3771 48.3319 40.0039 47.2223C55.0976 36.9277 48.2237 22.4445 38.104 29.6665C37.6596 29.9836 37.097 29.9836 36.6526 29.6665Z" stroke="#1C2B49" stroke-width="0.8"/>
<path d="M40.8978 36.3573H39.3833C38.9849 36.3573 38.662 36.0344 38.662 35.636L38.662 34.1215C38.662 33.8743 38.4431 33.6738 38.173 33.6738H36.5837C36.3136 33.6738 36.0946 33.8743 36.0946 34.1215L36.0946 35.636C36.0946 36.0344 35.7717 36.3573 35.3733 36.3573H33.8588C33.6116 36.3573 33.4111 36.5763 33.4111 36.8464V38.4357C33.4111 38.7057 33.6116 38.9247 33.8588 38.9247H35.3733C35.7717 38.9247 36.0946 39.2476 36.0946 39.646V41.1605C36.0946 41.4077 36.3136 41.6082 36.5837 41.6082H38.173C38.4431 41.6082 38.662 41.4077 38.662 41.1605V39.646C38.662 39.2476 38.9849 38.9247 39.3833 38.9247H40.8978C41.1451 38.9247 41.3455 38.7057 41.3455 38.4357V36.8464C41.3455 36.5763 41.1451 36.3573 40.8978 36.3573Z" stroke="#1C2B49" stroke-width="0.8" stroke-linecap="round" stroke-linejoin="round"/>
<path d="M89.9248 25.9341V30.1083C89.9248 30.4135 89.9673 30.6953 90.0524 30.9537C90.1374 31.2061 90.2621 31.4263 90.4266 31.6141C90.591 31.7961 90.7894 31.937 91.0219 32.0368C91.26 32.1366 91.5293 32.1865 91.8298 32.1865C92.1303 32.1865 92.3968 32.1366 92.6292 32.0368C92.8674 31.937 93.0686 31.7961 93.233 31.6141C93.3975 31.4263 93.5222 31.2061 93.6072 30.9537C93.6923 30.6953 93.7348 30.4135 93.7348 30.1083V25.9341H93.2671V30.1083C93.2671 30.437 93.2104 30.7247 93.097 30.9713C92.9893 31.212 92.8277 31.3998 92.6122 31.5349C92.3968 31.664 92.136 31.7286 91.8298 31.7286C91.5236 31.7286 91.2628 31.664 91.0474 31.5349C90.8376 31.3998 90.676 31.212 90.5626 30.9713C90.4492 30.7247 90.3926 30.437 90.3926 30.1083V25.9341H89.9248Z" fill="#1C2B49"/>
<path d="M97.5061 29.4918V32.0985H97.9483V29.439C97.9483 29.1396 97.9001 28.8783 97.8037 28.6552C97.7074 28.4322 97.5656 28.2619 97.3785 28.1445C97.1914 28.0212 96.9618 27.9596 96.6897 27.9596C96.4005 27.9596 96.1482 28.0418 95.9328 28.2061C95.7173 28.3705 95.5529 28.5995 95.4395 28.893V28.0476H94.9973V32.0985H95.4395V29.6327C95.4395 29.3979 95.4877 29.1895 95.5841 29.0075C95.6861 28.8196 95.8222 28.6699 95.9923 28.5584C96.168 28.4468 96.3665 28.3911 96.5876 28.3911C96.7974 28.3911 96.9703 28.4351 97.1064 28.5232C97.2424 28.6112 97.3417 28.7374 97.404 28.9018C97.4721 29.0662 97.5061 29.2629 97.5061 29.4918Z" fill="#1C2B49"/>
<path d="M98.6107 28.0476V28.4791H100.329V28.0476H98.6107ZM99.2485 26.6386V32.0985H99.6907V26.6386H99.2485Z" fill="#1C2B49"/>
<path d="M102.461 32.1865C102.852 32.1865 103.192 32.1043 103.481 31.94C103.776 31.7697 104.034 31.5085 104.255 31.1562L103.898 30.9184C103.722 31.2061 103.521 31.4175 103.294 31.5525C103.073 31.6875 102.812 31.755 102.512 31.755C102.228 31.755 101.979 31.6846 101.764 31.5437C101.554 31.3969 101.389 31.1944 101.27 30.936C101.157 30.6777 101.1 30.3783 101.1 30.0378C101.1 29.7854 101.134 29.5564 101.202 29.3509C101.27 29.1455 101.367 28.9693 101.491 28.8226C101.622 28.6758 101.772 28.5643 101.942 28.4879C102.118 28.4057 102.313 28.3646 102.529 28.3646C102.784 28.3646 103.011 28.4263 103.209 28.5496C103.408 28.6729 103.564 28.8431 103.677 29.0603C103.79 29.2776 103.847 29.5241 103.847 29.8001C103.847 29.8411 103.839 29.8881 103.822 29.941C103.81 29.9938 103.799 30.0349 103.788 30.0642L103.975 29.7912H100.93V30.1875H104.306C104.312 30.164 104.315 30.1318 104.315 30.0907C104.321 30.0437 104.323 30.0026 104.323 29.9674C104.323 29.5682 104.247 29.2188 104.094 28.9194C103.946 28.62 103.737 28.3852 103.464 28.2149C103.198 28.0447 102.886 27.9596 102.529 27.9596C102.251 27.9596 101.996 28.0124 101.764 28.1181C101.537 28.2179 101.338 28.3617 101.168 28.5496C101.004 28.7374 100.876 28.9605 100.785 29.2188C100.695 29.4713 100.649 29.7531 100.649 30.0642C100.649 30.4752 100.726 30.8421 100.879 31.165C101.038 31.482 101.253 31.7315 101.525 31.9135C101.798 32.0955 102.109 32.1865 102.461 32.1865Z" fill="#1C2B49"/>
<path d="M105.674 28.0476H105.232V32.0985H105.674V28.0476ZM106.975 28.5848L107.222 28.2061C107.131 28.1181 107.029 28.0564 106.915 28.0212C106.808 27.9801 106.691 27.9596 106.567 27.9596C106.363 27.9596 106.176 28.0329 106.005 28.1797C105.841 28.3265 105.711 28.5261 105.614 28.7785C105.518 29.0251 105.47 29.3098 105.47 29.6327H105.674C105.674 29.4038 105.699 29.1954 105.75 29.0075C105.801 28.8196 105.884 28.6699 105.997 28.5584C106.116 28.4468 106.272 28.3911 106.465 28.3911C106.567 28.3911 106.655 28.4087 106.728 28.4439C106.808 28.4733 106.89 28.5202 106.975 28.5848Z" fill="#1C2B49"/>
<path d="M107.87 30.9449L107.513 31.1562C107.564 31.3265 107.652 31.4908 107.777 31.6493C107.902 31.8079 108.063 31.937 108.262 32.0368C108.466 32.1366 108.704 32.1865 108.976 32.1865C109.225 32.1865 109.444 32.1366 109.631 32.0368C109.824 31.937 109.974 31.7991 110.082 31.6229C110.189 31.4409 110.243 31.2325 110.243 30.9977C110.243 30.7687 110.186 30.5809 110.073 30.4341C109.965 30.2815 109.821 30.1552 109.639 30.0554C109.464 29.9556 109.271 29.8676 109.061 29.7912C108.902 29.7325 108.752 29.6709 108.61 29.6063C108.469 29.5417 108.355 29.4595 108.27 29.3597C108.185 29.2541 108.143 29.122 108.143 28.9635C108.143 28.7639 108.211 28.6171 108.347 28.5232C108.483 28.4234 108.644 28.3735 108.831 28.3735C109.092 28.3735 109.305 28.438 109.469 28.5672C109.634 28.6963 109.761 28.849 109.852 29.0251L110.218 28.7961C110.15 28.6435 110.053 28.5055 109.928 28.3823C109.804 28.259 109.653 28.1592 109.478 28.0828C109.302 28.0065 109.104 27.9684 108.882 27.9684C108.684 27.9684 108.494 28.0065 108.313 28.0828C108.131 28.1592 107.984 28.2736 107.87 28.4263C107.763 28.5731 107.709 28.7609 107.709 28.9899C107.709 29.2306 107.763 29.4273 107.87 29.5799C107.978 29.7267 108.117 29.847 108.287 29.941C108.457 30.029 108.636 30.1053 108.823 30.1699C108.993 30.2286 109.152 30.2961 109.299 30.3725C109.447 30.4429 109.566 30.5339 109.656 30.6454C109.747 30.7511 109.792 30.8861 109.792 31.0505C109.792 31.2795 109.719 31.4556 109.571 31.5789C109.43 31.7022 109.24 31.7638 109.001 31.7638C108.797 31.7638 108.622 31.7257 108.474 31.6493C108.327 31.573 108.202 31.4732 108.1 31.3499C108.004 31.2267 107.927 31.0916 107.87 30.9449Z" fill="#1C2B49"/>
<path d="M110.629 28.0476V28.4791H112.346V28.0476H110.629ZM111.266 26.6386V32.0985H111.709V26.6386H111.266Z" fill="#1C2B49"/>
<path d="M115.516 32.0985H115.959V28.0476H115.516V32.0985ZM113.45 30.619V28.0476H113.007V30.6719C113.007 30.9948 113.056 31.2707 113.152 31.4996C113.248 31.7227 113.39 31.893 113.577 32.0104C113.77 32.1278 114 32.1865 114.266 32.1865C114.538 32.1865 114.782 32.1131 114.998 31.9664C115.219 31.8196 115.394 31.6229 115.525 31.3764C115.655 31.1239 115.72 30.8362 115.72 30.5134H115.516C115.516 30.7423 115.465 30.9507 115.363 31.1386C115.267 31.3265 115.131 31.4762 114.955 31.5877C114.785 31.6993 114.589 31.755 114.368 31.755C114.158 31.755 113.985 31.711 113.849 31.6229C113.713 31.5349 113.611 31.4057 113.543 31.2355C113.481 31.0652 113.45 30.8597 113.45 30.619ZM114.947 26.9292C114.947 27.0232 114.978 27.1024 115.04 27.167C115.102 27.2257 115.176 27.2551 115.261 27.2551C115.346 27.2551 115.42 27.2257 115.482 27.167C115.55 27.1024 115.584 27.0232 115.584 26.9292C115.584 26.8353 115.55 26.756 115.482 26.6915C115.42 26.6269 115.346 26.5946 115.261 26.5946C115.176 26.5946 115.102 26.6269 115.04 26.6915C114.978 26.756 114.947 26.8353 114.947 26.9292ZM113.382 26.9292C113.382 27.0232 113.413 27.1024 113.475 27.167C113.538 27.2257 113.611 27.2551 113.696 27.2551C113.781 27.2551 113.855 27.2257 113.917 27.167C113.986 27.1024 114.02 27.0232 114.02 26.9292C114.02 26.8353 113.986 26.756 113.917 26.6915C113.855 26.6269 113.781 26.5946 113.696 26.5946C113.611 26.5946 113.538 26.6269 113.475 26.6915C113.413 26.756 113.382 26.8353 113.382 26.9292Z" fill="#1C2B49"/>
<path d="M116.621 28.0476V28.4791H118.339V28.0476H116.621ZM117.259 26.6386V32.0985H117.701V26.6386H117.259Z" fill="#1C2B49"/>
<path d="M121.151 28.4791L118.473 32.0985H121.891V31.667H119.28L121.959 28.0476H118.694V28.4791H121.151Z" fill="#1C2B49"/>
<path d="M122.132 28.0476V28.4791H123.849V28.0476H122.132ZM122.769 26.6386V32.0985H123.212V26.6386H122.769Z" fill="#1C2B49"/>
<path d="M126.337 28.0476L128.14 32.3362L129.943 28.0476H129.441L128.14 31.3499L126.839 28.0476H126.337Z" fill="#1C2B49"/>
<path d="M130.096 30.073C130.096 30.4781 130.184 30.8421 130.36 31.165C130.536 31.482 130.774 31.7315 131.074 31.9135C131.38 32.0955 131.723 32.1865 132.103 32.1865C132.483 32.1865 132.823 32.0955 133.124 31.9135C133.43 31.7315 133.671 31.482 133.847 31.165C134.022 30.8421 134.11 30.4781 134.11 30.073C134.11 29.6621 134.022 29.2981 133.847 28.9811C133.671 28.6641 133.43 28.4145 133.124 28.2326C132.823 28.0506 132.483 27.9596 132.103 27.9596C131.723 27.9596 131.38 28.0506 131.074 28.2326C130.774 28.4145 130.536 28.6641 130.36 28.9811C130.184 29.2981 130.096 29.6621 130.096 30.073ZM130.547 30.073C130.547 29.7443 130.615 29.4537 130.751 29.2012C130.887 28.9488 131.071 28.7521 131.304 28.6112C131.542 28.4644 131.808 28.3911 132.103 28.3911C132.398 28.3911 132.662 28.4644 132.894 28.6112C133.132 28.7521 133.319 28.9488 133.455 29.2012C133.592 29.4537 133.66 29.7443 133.66 30.073C133.66 30.3959 133.592 30.6865 133.455 30.9449C133.319 31.1973 133.132 31.3969 132.894 31.5437C132.662 31.6846 132.398 31.755 132.103 31.755C131.808 31.755 131.542 31.6846 131.304 31.5437C131.071 31.3969 130.887 31.1973 130.751 30.9449C130.615 30.6865 130.547 30.3959 130.547 30.073Z" fill="#1C2B49"/>
<path d="M137.536 29.4918V32.0985H137.978V29.439C137.978 29.1396 137.93 28.8783 137.834 28.6552C137.737 28.4322 137.595 28.2619 137.408 28.1445C137.221 28.0212 136.992 27.9596 136.719 27.9596C136.43 27.9596 136.178 28.0418 135.963 28.2061C135.747 28.3705 135.583 28.5995 135.469 28.893V28.0476H135.027V32.0985H135.469V29.6327C135.469 29.3979 135.518 29.1895 135.614 29.0075C135.716 28.8196 135.852 28.6699 136.022 28.5584C136.198 28.4468 136.396 28.3911 136.617 28.3911C136.827 28.3911 137 28.4351 137.136 28.5232C137.272 28.6112 137.372 28.7374 137.434 28.9018C137.502 29.0662 137.536 29.2629 137.536 29.4918Z" fill="#1C2B49"/>
<path d="M141.403 28.0476V28.4791H143.24V28.0476H141.403ZM143.325 25.8989L143.571 25.5291C143.532 25.4703 143.475 25.4116 143.401 25.3529C143.333 25.2942 143.251 25.2473 143.155 25.212C143.064 25.1709 142.956 25.1504 142.832 25.1504C142.593 25.1504 142.395 25.2062 142.236 25.3177C142.083 25.4234 141.97 25.576 141.896 25.7756C141.822 25.9694 141.785 26.2042 141.785 26.4801V32.0985H142.228V26.533C142.228 26.351 142.245 26.1925 142.279 26.0574C142.318 25.9165 142.381 25.8079 142.466 25.7316C142.551 25.6494 142.664 25.6083 142.806 25.6083C142.908 25.6083 143.004 25.6318 143.095 25.6788C143.186 25.7257 143.262 25.7991 143.325 25.8989Z" fill="#1C2B49"/>
<path d="M146.524 32.0985H146.967V28.0476H146.524V32.0985ZM144.458 30.619V28.0476H144.016V30.6719C144.016 30.9948 144.064 31.2707 144.16 31.4996C144.257 31.7227 144.398 31.893 144.585 32.0104C144.778 32.1278 145.008 32.1865 145.274 32.1865C145.546 32.1865 145.79 32.1131 146.006 31.9664C146.227 31.8196 146.403 31.6229 146.533 31.3764C146.663 31.1239 146.729 30.8362 146.729 30.5134H146.524C146.524 30.7423 146.473 30.9507 146.371 31.1386C146.275 31.3265 146.139 31.4762 145.963 31.5877C145.793 31.6993 145.597 31.755 145.376 31.755C145.167 31.755 144.994 31.711 144.858 31.6229C144.721 31.5349 144.619 31.4057 144.551 31.2355C144.489 31.0652 144.458 30.8597 144.458 30.619ZM145.955 26.9292C145.955 27.0232 145.986 27.1024 146.048 27.167C146.111 27.2257 146.184 27.2551 146.269 27.2551C146.354 27.2551 146.428 27.2257 146.49 27.167C146.558 27.1024 146.592 27.0232 146.592 26.9292C146.592 26.8353 146.558 26.756 146.49 26.6915C146.428 26.6269 146.354 26.5946 146.269 26.5946C146.184 26.5946 146.111 26.6269 146.048 26.6915C145.986 26.756 145.955 26.8353 145.955 26.9292ZM144.39 26.9292C144.39 27.0232 144.421 27.1024 144.483 27.167C144.546 27.2257 144.619 27.2551 144.704 27.2551C144.79 27.2551 144.863 27.2257 144.926 27.167C144.994 27.1024 145.028 27.0232 145.028 26.9292C145.028 26.8353 144.994 26.756 144.926 26.6915C144.863 26.6269 144.79 26.5946 144.704 26.5946C144.619 26.5946 144.546 26.6269 144.483 26.6915C144.421 26.756 144.39 26.8353 144.39 26.9292Z" fill="#1C2B49"/>
<path d="M148.667 25.2296H148.224V32.0985H148.667V25.2296ZM150.733 29.4918V32.0985H151.175V29.439C151.175 29.122 151.127 28.8549 151.031 28.6376C150.934 28.4145 150.793 28.2472 150.606 28.1357C150.418 28.0183 150.189 27.9596 149.917 27.9596C149.65 27.9596 149.409 28.0329 149.194 28.1797C148.984 28.3265 148.817 28.5261 148.692 28.7785C148.573 29.0251 148.513 29.3098 148.513 29.6327H148.667C148.667 29.4038 148.715 29.1954 148.811 29.0075C148.913 28.8196 149.049 28.6699 149.219 28.5584C149.395 28.4468 149.594 28.3911 149.815 28.3911C150.03 28.3911 150.203 28.4351 150.333 28.5232C150.47 28.6112 150.569 28.7374 150.631 28.9018C150.699 29.0662 150.733 29.2629 150.733 29.4918Z" fill="#1C2B49"/>
<path d="M152.875 28.0476H152.433V32.0985H152.875V28.0476ZM154.176 28.5848L154.423 28.2061C154.332 28.1181 154.23 28.0564 154.117 28.0212C154.009 27.9801 153.893 27.9596 153.768 27.9596C153.564 27.9596 153.377 28.0329 153.207 28.1797C153.043 28.3265 152.912 28.5261 152.816 28.7785C152.719 29.0251 152.671 29.3098 152.671 29.6327H152.875C152.875 29.4038 152.901 29.1954 152.952 29.0075C153.003 28.8196 153.085 28.6699 153.198 28.5584C153.318 28.4468 153.473 28.3911 153.666 28.3911C153.768 28.3911 153.856 28.4087 153.93 28.4439C154.009 28.4733 154.091 28.5202 154.176 28.5848Z" fill="#1C2B49"/>
<path d="M156.427 32.1865C156.818 32.1865 157.158 32.1043 157.448 31.94C157.742 31.7697 158 31.5085 158.222 31.1562L157.864 30.9184C157.689 31.2061 157.487 31.4175 157.261 31.5525C157.039 31.6875 156.779 31.755 156.478 31.755C156.195 31.755 155.945 31.6846 155.73 31.5437C155.52 31.3969 155.356 31.1944 155.236 30.936C155.123 30.6777 155.066 30.3783 155.066 30.0378C155.066 29.7854 155.1 29.5564 155.168 29.3509C155.236 29.1455 155.333 28.9693 155.458 28.8226C155.588 28.6758 155.738 28.5643 155.908 28.4879C156.084 28.4057 156.28 28.3646 156.495 28.3646C156.75 28.3646 156.977 28.4263 157.175 28.5496C157.374 28.6729 157.53 28.8431 157.643 29.0603C157.757 29.2776 157.813 29.5241 157.813 29.8001C157.813 29.8411 157.805 29.8881 157.788 29.941C157.776 29.9938 157.765 30.0349 157.754 30.0642L157.941 29.7912H154.896V30.1875H158.273C158.278 30.164 158.281 30.1318 158.281 30.0907C158.287 30.0437 158.29 30.0026 158.29 29.9674C158.29 29.5682 158.213 29.2188 158.06 28.9194C157.913 28.62 157.703 28.3852 157.431 28.2149C157.164 28.0447 156.852 27.9596 156.495 27.9596C156.217 27.9596 155.962 28.0124 155.73 28.1181C155.503 28.2179 155.304 28.3617 155.134 28.5496C154.97 28.7374 154.842 28.9605 154.752 29.2188C154.661 29.4713 154.616 29.7531 154.616 30.0642C154.616 30.4752 154.692 30.8421 154.845 31.165C155.004 31.482 155.219 31.7315 155.492 31.9135C155.764 32.0955 156.076 32.1865 156.427 32.1865Z" fill="#1C2B49"/>
<path d="M161.707 29.4918V32.0985H162.149V29.439C162.149 29.1396 162.101 28.8783 162.004 28.6552C161.908 28.4322 161.766 28.2619 161.579 28.1445C161.392 28.0212 161.162 27.9596 160.89 27.9596C160.601 27.9596 160.349 28.0418 160.133 28.2061C159.918 28.3705 159.753 28.5995 159.64 28.893V28.0476H159.198V32.0985H159.64V29.6327C159.64 29.3979 159.688 29.1895 159.785 29.0075C159.887 28.8196 160.023 28.6699 160.193 28.5584C160.369 28.4468 160.567 28.3911 160.788 28.3911C160.998 28.3911 161.171 28.4351 161.307 28.5232C161.443 28.6112 161.542 28.7374 161.605 28.9018C161.673 29.0662 161.707 29.2629 161.707 29.4918Z" fill="#1C2B49"/>
<path d="M166.409 25.2296V32.0985H166.851V25.2296H166.409ZM163.066 30.073C163.066 30.5075 163.151 30.8832 163.321 31.2002C163.492 31.5173 163.718 31.7609 164.002 31.9311C164.291 32.1014 164.608 32.1865 164.954 32.1865C165.204 32.1865 165.431 32.1337 165.635 32.028C165.839 31.9223 166.012 31.7756 166.153 31.5877C166.301 31.394 166.414 31.1679 166.494 30.9096C166.573 30.6513 166.613 30.3725 166.613 30.073C166.613 29.7736 166.573 29.4948 166.494 29.2365C166.414 28.9781 166.301 28.7551 166.153 28.5672C166.012 28.3735 165.839 28.2237 165.635 28.1181C165.431 28.0124 165.204 27.9596 164.954 27.9596C164.608 27.9596 164.291 28.0447 164.002 28.2149C163.718 28.3852 163.492 28.6288 163.321 28.9459C163.151 29.2629 163.066 29.6386 163.066 30.073ZM163.517 30.073C163.517 29.7208 163.585 29.4185 163.721 29.166C163.857 28.9136 164.039 28.7228 164.265 28.5936C164.492 28.4586 164.742 28.3911 165.014 28.3911C165.195 28.3911 165.368 28.4322 165.533 28.5144C165.703 28.5965 165.853 28.714 165.983 28.8666C166.114 29.0192 166.216 29.1983 166.289 29.4038C166.369 29.6093 166.409 29.8323 166.409 30.073C166.409 30.3137 166.369 30.5368 166.289 30.7423C166.216 30.9478 166.114 31.1268 165.983 31.2795C165.853 31.4321 165.703 31.5495 165.533 31.6317C165.368 31.7139 165.195 31.755 165.014 31.755C164.742 31.755 164.492 31.6875 164.265 31.5525C164.039 31.4175 163.857 31.2267 163.721 30.9801C163.585 30.7276 163.517 30.4253 163.517 30.073Z" fill="#1C2B49"/>
<path d="M169.535 32.1865C169.926 32.1865 170.266 32.1043 170.555 31.94C170.85 31.7697 171.108 31.5085 171.329 31.1562L170.972 30.9184C170.796 31.2061 170.595 31.4175 170.368 31.5525C170.147 31.6875 169.886 31.755 169.586 31.755C169.302 31.755 169.053 31.6846 168.838 31.5437C168.628 31.3969 168.463 31.1944 168.344 30.936C168.231 30.6777 168.174 30.3783 168.174 30.0378C168.174 29.7854 168.208 29.5564 168.276 29.3509C168.344 29.1455 168.441 28.9693 168.565 28.8226C168.696 28.6758 168.846 28.5643 169.016 28.4879C169.192 28.4057 169.388 28.3646 169.603 28.3646C169.858 28.3646 170.085 28.4263 170.283 28.5496C170.482 28.6729 170.638 28.8431 170.751 29.0603C170.864 29.2776 170.921 29.5241 170.921 29.8001C170.921 29.8411 170.913 29.8881 170.896 29.941C170.884 29.9938 170.873 30.0349 170.862 30.0642L171.049 29.7912H168.004V30.1875H171.38C171.386 30.164 171.389 30.1318 171.389 30.0907C171.395 30.0437 171.397 30.0026 171.397 29.9674C171.397 29.5682 171.321 29.2188 171.168 28.9194C171.02 28.62 170.811 28.3852 170.538 28.2149C170.272 28.0447 169.96 27.9596 169.603 27.9596C169.325 27.9596 169.07 28.0124 168.838 28.1181C168.611 28.2179 168.412 28.3617 168.242 28.5496C168.078 28.7374 167.95 28.9605 167.86 29.2188C167.769 29.4713 167.723 29.7531 167.723 30.0642C167.723 30.4752 167.8 30.8421 167.953 31.165C168.112 31.482 168.327 31.7315 168.599 31.9135C168.872 32.0955 169.183 32.1865 169.535 32.1865Z" fill="#1C2B49"/>
<path d="M174.814 29.4918V32.0985H175.257V29.439C175.257 29.1396 175.208 28.8783 175.112 28.6552C175.016 28.4322 174.874 28.2619 174.687 28.1445C174.5 28.0212 174.27 27.9596 173.998 27.9596C173.709 27.9596 173.457 28.0418 173.241 28.2061C173.026 28.3705 172.861 28.5995 172.748 28.893V28.0476H172.306V32.0985H172.748V29.6327C172.748 29.3979 172.796 29.1895 172.892 29.0075C172.994 28.8196 173.131 28.6699 173.301 28.5584C173.476 28.4468 173.675 28.3911 173.896 28.3911C174.106 28.3911 174.279 28.4351 174.415 28.5232C174.551 28.6112 174.65 28.7374 174.712 28.9018C174.78 29.0662 174.814 29.2629 174.814 29.4918Z" fill="#1C2B49"/>
<path d="M91.2416 49.7275H96.3967L96.0762 48.3295H91.5621L91.2416 49.7275ZM93.7913 45.2261L95.3378 48.8608L95.3796 49.2662L96.7032 52.2438H98.5562L93.7913 41.913L89.0264 52.2438H90.8794L92.2308 49.1823L92.2587 48.8188L93.7913 45.2261ZM94.46 40.4731C94.46 40.734 94.5529 40.953 94.7387 41.1301C94.9245 41.3072 95.1474 41.3957 95.4075 41.3957C95.6768 41.3957 95.8997 41.3072 96.0762 41.1301C96.262 40.953 96.3549 40.734 96.3549 40.4731C96.3549 40.2121 96.262 39.9931 96.0762 39.816C95.8997 39.639 95.6768 39.5504 95.4075 39.5504C95.1474 39.5504 94.9245 39.639 94.7387 39.816C94.5529 39.9931 94.46 40.2121 94.46 40.4731ZM91.1859 40.4451C91.1859 40.7061 91.2788 40.9251 91.4646 41.1021C91.6503 41.2699 91.8732 41.3538 92.1333 41.3538C92.4027 41.3538 92.6302 41.2699 92.816 41.1021C93.0018 40.9251 93.0947 40.7061 93.0947 40.4451C93.0947 40.1842 93.0018 39.9651 92.816 39.7881C92.6302 39.611 92.4027 39.5225 92.1333 39.5225C91.8732 39.5225 91.6503 39.611 91.4646 39.7881C91.2788 39.9651 91.1859 40.1842 91.1859 40.4451Z" fill="#1C2B49"/>
<path d="M101.572 47.5746L104.665 52.2438H106.657L103.341 47.5746H101.572ZM99.5514 42.4582V52.2438H101.195V42.4582H99.5514ZM100.527 43.898H102.491C102.872 43.898 103.202 43.9633 103.48 44.0938C103.759 44.2149 103.977 44.3966 104.135 44.6389C104.293 44.8813 104.372 45.1795 104.372 45.5336C104.372 45.8785 104.293 46.1767 104.135 46.4283C103.977 46.6706 103.759 46.857 103.48 46.9875C103.202 47.1087 102.872 47.1692 102.491 47.1692H100.527V48.5392H102.561C103.276 48.5392 103.894 48.4134 104.414 48.1618C104.943 47.9101 105.352 47.556 105.64 47.0993C105.928 46.6427 106.072 46.1115 106.072 45.5057C106.072 44.8906 105.928 44.3547 105.64 43.898C105.352 43.4414 104.943 43.0872 104.414 42.8356C103.894 42.584 103.276 42.4582 102.561 42.4582H100.527V43.898Z" fill="#1C2B49"/>
<path d="M107.211 43.9819H111.669L106.779 52.2438H113.996V50.762H109.454L114.358 42.4582H107.211V43.9819Z" fill="#1C2B49"/>
<path d="M115.006 43.9819H117.569V52.2438H119.227V43.9819H121.805V42.4582H115.006V43.9819Z" fill="#1C2B49"/>
<path d="M123.866 52.2438H128.784V50.7899H123.866V52.2438ZM123.866 43.912H128.784V42.4582H123.866V43.912ZM123.866 47.7144H128.505V46.2885H123.866V47.7144ZM122.849 42.4582V52.2438H124.465V42.4582H122.849Z" fill="#1C2B49"/>
<path d="M137.788 42.4582V49.0285L130.669 41.9689V52.2438H132.285V45.6734L139.404 52.7331V42.4582H137.788Z" fill="#1C2B49"/>
<path d="M147.486 46.9456L152.181 52.2438H153.95L148.795 46.4423C148.582 46.2 148.382 45.981 148.196 45.7853C148.011 45.5802 147.862 45.3845 147.75 45.1981C147.639 45.0024 147.583 44.802 147.583 44.597C147.583 44.392 147.625 44.2149 147.709 44.0658C147.792 43.9074 147.918 43.7815 148.085 43.6883C148.252 43.5951 148.452 43.5486 148.684 43.5486C148.916 43.5486 149.111 43.5951 149.269 43.6883C149.427 43.7815 149.548 43.9074 149.631 44.0658C149.724 44.2242 149.771 44.406 149.771 44.611C149.771 44.8067 149.706 45.0071 149.576 45.2121C149.446 45.4171 149.26 45.6222 149.018 45.8272C148.777 46.0229 148.48 46.214 148.127 46.4004C147.932 46.5029 147.699 46.6147 147.43 46.7359C147.161 46.8477 146.882 46.9875 146.594 47.1553C146.306 47.3137 146.037 47.5094 145.786 47.7424C145.535 47.9661 145.331 48.2363 145.173 48.5532C145.015 48.8608 144.936 49.2289 144.936 49.6576C144.936 50.2261 145.085 50.7154 145.382 51.1254C145.688 51.5262 146.088 51.8384 146.58 52.0621C147.082 52.2857 147.616 52.3976 148.182 52.3976C148.833 52.3976 149.432 52.2857 149.98 52.0621C150.528 51.8291 151.034 51.5215 151.498 51.1394C151.963 50.7573 152.39 50.3333 152.78 49.8673C153.17 49.4013 153.537 48.9306 153.881 48.4553L152.794 47.6865C152.488 48.1338 152.162 48.5625 151.819 48.9726C151.475 49.3733 151.113 49.7321 150.732 50.049C150.36 50.3659 149.975 50.6175 149.576 50.8039C149.176 50.981 148.763 51.0695 148.336 51.0695C147.992 51.0695 147.681 51.0089 147.402 50.8878C147.133 50.7573 146.919 50.5756 146.761 50.3426C146.613 50.1096 146.538 49.844 146.538 49.5457C146.538 49.2196 146.617 48.9446 146.775 48.721C146.942 48.4973 147.151 48.3016 147.402 48.1338C147.662 47.9567 147.936 47.7983 148.224 47.6585C148.512 47.5094 148.781 47.3603 149.032 47.2112C149.385 46.9875 149.696 46.7731 149.966 46.5681C150.235 46.3631 150.463 46.1581 150.648 45.953C150.834 45.7387 150.974 45.515 151.066 45.282C151.169 45.049 151.22 44.7974 151.22 44.5271C151.22 44.1357 151.117 43.7676 150.913 43.4227C150.718 43.0779 150.435 42.803 150.063 42.5979C149.692 42.3836 149.237 42.2764 148.698 42.2764C148.168 42.2764 147.704 42.3789 147.305 42.584C146.914 42.7797 146.608 43.0499 146.385 43.3948C146.171 43.7303 146.065 44.1124 146.065 44.5411C146.065 44.8859 146.144 45.2028 146.301 45.4917C146.469 45.7806 146.664 46.0462 146.887 46.2885C147.11 46.5215 147.309 46.7405 147.486 46.9456Z" fill="#1C2B49"/>
<path d="M91.2416 65.2602H96.3967L96.0762 63.8623H91.5621L91.2416 65.2602ZM93.7913 60.7588L95.3378 64.3935L95.3796 64.7989L96.7032 67.7765H98.5562L93.7913 57.4457L89.0264 67.7765H90.8794L92.2308 64.715L92.2587 64.3516L93.7913 60.7588Z" fill="#1C2B49"/>
<path d="M99.5514 57.9909V67.7765H101.195V57.9909H99.5514ZM100.527 59.4448H102.491C102.872 59.4448 103.202 59.5054 103.48 59.6265C103.759 59.7477 103.977 59.9247 104.135 60.1577C104.293 60.3907 104.372 60.6843 104.372 61.0384C104.372 61.3833 104.293 61.6768 104.135 61.9191C103.977 62.1521 103.759 62.3292 103.48 62.4504C103.202 62.5622 102.872 62.6181 102.491 62.6181H100.527V64.072H102.491C103.206 64.072 103.824 63.9508 104.344 63.7085C104.864 63.4569 105.268 63.1074 105.556 62.66C105.844 62.2034 105.988 61.6628 105.988 61.0384C105.988 60.414 105.844 59.8735 105.556 59.4168C105.268 58.9601 104.864 58.6107 104.344 58.3684C103.824 58.1167 103.206 57.9909 102.491 57.9909H100.527V59.4448Z" fill="#1C2B49"/>
<path d="M108.651 62.8837C108.651 62.3805 108.73 61.9191 108.888 61.4998C109.055 61.0711 109.287 60.7029 109.585 60.3954C109.882 60.0785 110.23 59.8362 110.629 59.6684C111.038 59.4914 111.489 59.4028 111.981 59.4028C112.464 59.4028 112.905 59.4914 113.305 59.6684C113.713 59.8362 114.066 60.0785 114.363 60.3954C114.661 60.7029 114.888 61.0711 115.046 61.4998C115.204 61.9191 115.283 62.3805 115.283 62.8837C115.283 63.387 115.199 63.853 115.032 64.2817C114.874 64.7011 114.647 65.0692 114.349 65.3861C114.052 65.6936 113.699 65.9359 113.291 66.113C112.891 66.2807 112.45 66.3646 111.967 66.3646C111.484 66.3646 111.038 66.2807 110.629 66.113C110.23 65.9359 109.882 65.6936 109.585 65.3861C109.287 65.0692 109.055 64.7011 108.888 64.2817C108.73 63.853 108.651 63.387 108.651 62.8837ZM106.909 62.8837C106.909 63.6107 107.035 64.2863 107.286 64.9107C107.536 65.5258 107.889 66.0664 108.345 66.5324C108.8 66.989 109.334 67.3478 109.947 67.6088C110.56 67.8604 111.233 67.9862 111.967 67.9862C112.701 67.9862 113.374 67.8604 113.987 67.6088C114.61 67.3478 115.148 66.989 115.603 66.5324C116.059 66.0664 116.411 65.5258 116.662 64.9107C116.913 64.2863 117.038 63.6107 117.038 62.8837C117.038 62.1568 116.913 61.4858 116.662 60.8707C116.411 60.2463 116.054 59.7104 115.589 59.263C115.134 58.8064 114.596 58.4522 113.973 58.2006C113.36 57.949 112.691 57.8232 111.967 57.8232C111.243 57.8232 110.574 57.949 109.961 58.2006C109.348 58.4522 108.809 58.8064 108.345 59.263C107.889 59.7104 107.536 60.2463 107.286 60.8707C107.035 61.4858 106.909 62.1568 106.909 62.8837Z" fill="#1C2B49"/>
<path d="M117.101 59.5147H119.664V67.7765H121.322V59.5147H123.9V57.9909H117.101V59.5147Z" fill="#1C2B49"/>
<path d="M125.599 63.2891H132.565V61.7654H125.599V63.2891ZM131.492 57.9909V67.7765H133.136V57.9909H131.492ZM124.944 57.9909V67.7765H126.588V57.9909H124.944Z" fill="#1C2B49"/>
<path d="M136.176 67.7765H141.094V66.3227H136.176V67.7765ZM136.176 59.4448H141.094V57.9909H136.176V59.4448ZM136.176 63.2472H140.815V61.8213H136.176V63.2472ZM135.159 57.9909V67.7765H136.775V57.9909H135.159Z" fill="#1C2B49"/>
<path d="M142.979 57.9909V67.7765H144.665V57.9909H142.979ZM148.287 57.9909L144.163 62.6181L148.454 67.7765H150.475L146.156 62.5762L150.266 57.9909H148.287Z" fill="#1C2B49"/>
<path d="M152.483 67.7765H157.401V66.3227H152.483V67.7765ZM152.483 59.4448H157.401V57.9909H152.483V59.4448ZM152.483 63.2472H157.122V61.8213H152.483V63.2472ZM151.466 57.9909V67.7765H153.082V57.9909H151.466Z" fill="#1C2B49"/>
<path d="M161.306 63.1074L164.399 67.7765H166.391L163.076 63.1074H161.306ZM159.286 57.9909V67.7765H160.93V57.9909H159.286ZM160.261 59.4308H162.226C162.606 59.4308 162.936 59.496 163.215 59.6265C163.494 59.7477 163.712 59.9294 163.87 60.1717C164.028 60.414 164.107 60.7122 164.107 61.0664C164.107 61.4112 164.028 61.7094 163.87 61.9611C163.712 62.2034 163.494 62.3898 163.215 62.5203C162.936 62.6414 162.606 62.702 162.226 62.702H160.261V64.072H162.295C163.011 64.072 163.628 63.9462 164.148 63.6945C164.678 63.4429 165.086 63.0888 165.374 62.6321C165.662 62.1754 165.806 61.6442 165.806 61.0384C165.806 60.4233 165.662 59.8875 165.374 59.4308C165.086 58.9741 164.678 58.62 164.148 58.3684C163.628 58.1167 163.011 57.9909 162.295 57.9909H160.261V59.4308Z" fill="#1C2B49"/>
<path d="M174.539 57.9909V64.5613L167.419 57.5016V67.7765H169.035V61.2062L176.155 68.2658V57.9909H174.539Z" fill="#1C2B49"/>
<path d="M75.5532 0V96.1106" stroke="#1C2B49" stroke-width="3"/>
<path d="M82.7388 9.88086H204V86.2304H82.7388" stroke="#1C2B49" stroke-width="2"/>
<path d="M68.3672 9.88086H0.999932V86.2304H68.3672" stroke="#1C2B49" stroke-width="2"/>
</svg>
