<svg width="23" height="15" viewBox="0 0 23 15" fill="none" xmlns="http://www.w3.org/2000/svg">
<path fill-rule="evenodd" clip-rule="evenodd" d="M1.00515 8.09623C0.588091 8.09623 0.25 7.75814 0.25 7.34108C0.25 6.92403 0.58809 6.58594 1.00515 6.58594H21.9949C22.4119 6.58594 22.75 6.92403 22.75 7.34108C22.75 7.75814 22.4119 8.09623 21.9949 8.09623H1.00515Z" fill="white"/>
<path fill-rule="evenodd" clip-rule="evenodd" d="M1.00515 14.7915C0.588091 14.7915 0.25 14.4535 0.25 14.0364C0.25 13.6193 0.58809 13.2812 1.00515 13.2812H21.9949C22.4119 13.2812 22.75 13.6193 22.75 14.0364C22.75 14.4535 22.4119 14.7915 21.9949 14.7915H1.00515Z" fill="white"/>
<path fill-rule="evenodd" clip-rule="evenodd" d="M0.755146 1.51029C0.338091 1.51029 0 1.1722 0 0.755146C0 0.33809 0.33809 0 0.755146 0H21.7449C22.1619 0 22.5 0.33809 22.5 0.755146C22.5 1.1722 22.1619 1.51029 21.7449 1.51029H0.755146Z" fill="white"/>
</svg>
