<svg width="442" height="404" viewBox="0 0 442 404" fill="none" xmlns="http://www.w3.org/2000/svg">
<path fill-rule="evenodd" clip-rule="evenodd" d="M593.312 90.5554C594.846 84.3349 594.559 79.2078 592.63 75.1462C588.761 66.9973 577.742 61.8392 559.55 60.4183C541.59 59.0154 517.614 61.347 489.443 67.0754C433.141 78.5241 360.637 103.425 287.157 138.313C213.598 173.239 143.444 211.461 93.9679 245.644C69.2099 262.75 49.7612 278.755 37.6448 292.747C31.5836 299.746 27.4649 306.121 25.3845 311.769C23.3173 317.381 23.3169 322.101 25.1996 326.066C27.1194 330.11 31.1338 333.762 37.3923 336.835C43.6339 339.9 51.8942 342.281 61.9306 343.895C81.9969 347.123 108.751 347.221 139.657 343.947C201.446 337.4 279.388 317.42 352.744 282.59C426.175 247.725 490.741 204.639 534.657 165.602C556.628 146.072 573.335 127.64 583.416 111.835C588.457 103.931 591.777 96.7816 593.312 90.5554ZM353.816 284.849C501.049 214.942 612.898 112.005 594.889 74.074C576.879 36.1432 433.317 66.1485 286.084 136.055C138.852 205.961 4.93156 289.208 22.9412 327.139C40.9508 365.069 206.584 354.755 353.816 284.849Z" fill="url(#paint0_linear)" fill-opacity="0.2"/>
<path opacity="0.2" fill-rule="evenodd" clip-rule="evenodd" d="M610.934 148.395C613.706 142.629 614.489 137.547 613.459 133.161C611.413 124.447 602.044 117.722 584.925 113.508C568.02 109.347 544.555 107.904 516.252 108.907C459.692 110.912 384.448 122.654 305.2 141.26C226.012 159.851 148.57 186.944 92.1762 214.451C63.9618 228.213 41.1365 242.021 26.0026 254.846C18.4315 261.262 12.8932 267.342 9.54582 272.95C6.20165 278.553 5.16646 283.466 6.16734 287.729C7.17069 292.002 10.2572 295.938 15.6766 299.457C21.1038 302.981 28.6745 305.951 38.1962 308.317C57.2299 313.046 83.5148 315.226 114.608 314.968C176.754 314.451 257.566 304.196 336.757 285.603C415.89 267.024 487.7 238.463 538.473 209.501C563.873 195.012 583.899 180.485 596.942 167.138C603.464 160.464 608.16 154.165 610.934 148.395ZM337.329 288.037C496 250.784 625.49 173.468 615.893 132.59C606.296 91.7123 463.3 101.573 304.628 138.826C145.957 176.079 -5.86377 247.423 3.73352 288.3C13.3308 329.178 178.657 325.29 337.329 288.037Z" fill="#C25A3F"/>
<defs>
<linearGradient id="paint0_linear" x1="493.475" y1="49.5233" x2="-80.4127" y2="-15.1861" gradientUnits="userSpaceOnUse">
<stop stop-color="#C25A3F"/>
<stop offset="1" stop-color="#C25A3F" stop-opacity="0.24"/>
</linearGradient>
</defs>
</svg>
