<svg width="360" height="242" viewBox="0 0 360 242" fill="none" xmlns="http://www.w3.org/2000/svg">
<path d="M407.954 51.3796C408.884 55.0942 408.263 59.3515 406.067 64.0999C403.869 68.8509 400.128 74.0151 394.954 79.4699C384.607 90.3786 368.687 102.286 348.499 114.203C308.137 138.029 250.933 161.77 187.757 177.597C124.553 193.433 59.9382 202.613 10.1383 203.768C-14.7716 204.346 -35.9073 202.915 -51.2865 199.336C-58.9786 197.546 -65.1622 195.234 -69.6456 192.417C-74.1251 189.602 -76.8087 186.349 -77.7253 182.69C-78.6407 179.037 -77.7874 174.889 -75.1193 170.264C-72.4497 165.636 -68.0228 160.641 -62.0068 155.387C-49.9788 144.882 -31.8115 133.526 -9.36924 122.163C35.4979 99.4459 97.2121 76.8215 160.415 60.9868C223.648 45.1445 283.783 34.8385 329.096 32.5574C351.764 31.4162 370.642 32.2882 384.321 35.4399C398.108 38.6164 406.099 43.9785 407.954 51.3796Z" stroke="#F5DBD2" stroke-width="2.5"/>
</svg>
