<svg width="55" height="55" viewBox="0 0 55 55" fill="none" xmlns="http://www.w3.org/2000/svg">
<circle cx="27.5" cy="27.5" r="27.5" fill="#F5DBD2" fill-opacity="0.55"/>
<path d="M41.5 41.5V51C41.5 52.1046 40.6046 53 39.5 53H16C14.8954 53 14 52.1046 14 51V41.5M41.5 41.5V32V15.5V9.5M41.5 41.5H14M14 41.5V9.5M41.5 9.5V3C41.5 1.89543 40.6046 1 39.5 1H16C14.8954 1 14 1.89543 14 3V9.5M41.5 9.5H14M24 5H32.5" stroke="#1C2B49" stroke-opacity="0.9" stroke-width="0.8" stroke-linecap="round" stroke-linejoin="round"/>
<circle cx="27.5" cy="47.5" r="2.1" stroke="#1C2B49" stroke-opacity="0.9" stroke-width="0.8"/>
<path fill-rule="evenodd" clip-rule="evenodd" d="M11.293 31.5264C8.9513 30.2646 7.35985 27.7898 7.35985 24.9434C7.35985 22.0969 8.9513 19.6222 11.293 18.3604V19.2857C9.4111 20.4656 8.15985 22.5583 8.15985 24.9434C8.15985 27.3284 9.4111 29.4212 11.293 30.6011V31.5264Z" fill="#1C2B49" fill-opacity="0.9"/>
<path fill-rule="evenodd" clip-rule="evenodd" d="M9.50684 34.4328C6.22834 32.6663 4.00016 29.2015 4.00016 25.2164C4.00016 21.2312 6.22834 17.7665 9.50684 16V16.9201C6.68756 18.6077 4.80016 21.6916 4.80016 25.2164C4.80016 28.7411 6.68756 31.8251 9.50684 33.5127V34.4328Z" fill="#1C2B49" fill-opacity="0.9"/>
<path fill-rule="evenodd" clip-rule="evenodd" d="M44 31.5264C46.3417 30.2646 47.9331 27.7898 47.9331 24.9434C47.9331 22.0969 46.3417 19.6222 44 18.3604V19.2857C45.8819 20.4656 47.1331 22.5583 47.1331 24.9434C47.1331 27.3284 45.8819 29.4212 44 30.6011V31.5264Z" fill="#1C2B49" fill-opacity="0.9"/>
<path fill-rule="evenodd" clip-rule="evenodd" d="M45.7861 34.4328C49.0646 32.6663 51.2928 29.2015 51.2928 25.2164C51.2928 21.2312 49.0646 17.7665 45.7861 16V16.9201C48.6054 18.6077 50.4928 21.6916 50.4928 25.2164C50.4928 28.7411 48.6054 31.8251 45.7861 33.5127V34.4328Z" fill="#1C2B49" fill-opacity="0.9"/>
</svg>
