<svg width="1209" height="597" viewBox="0 0 1209 597" fill="none" xmlns="http://www.w3.org/2000/svg">
<path opacity="0.2" fill-rule="evenodd" clip-rule="evenodd" d="M1387.78 39.9667C1392.75 50.4276 1393.33 63.3249 1389.61 78.428C1385.88 93.5369 1377.88 110.682 1365.92 129.434C1342 166.938 1302.5 210.485 1250.75 256.478C1147.3 348.441 995.312 449.848 822.523 531.889C779.385 552.371 735.574 570.672 691.849 586.844H699.016C740.716 571.228 782.461 553.678 823.595 534.147C1169.54 369.89 1432.35 128.02 1390.04 38.8945C1347.72 -50.2307 1010.4 20.2722 664.446 184.53C370.235 324.222 98.6471 486.585 50.0225 586.844H52.8086C58.4313 575.58 66.9485 563.424 78.1425 550.497C106.891 517.297 152.864 479.5 211.117 439.254C327.581 358.789 492.601 268.89 665.518 186.788C838.357 104.724 1008.98 46.1112 1141.6 19.1434C1207.93 5.65563 1264.62 0.112812 1307.27 3.44399C1350.15 6.79325 1377.83 19.0192 1387.78 39.9667Z" fill="#C25A3F"/>
<path opacity="0.2" fill-rule="evenodd" clip-rule="evenodd" d="M1436.96 186.961C1439.61 198.243 1437.51 210.99 1430.78 224.987C1424.05 238.989 1412.75 254.086 1397.28 269.924C1366.32 301.599 1318.97 335.914 1259.15 370.037C1139.54 438.268 970.495 505.488 784.285 549.206C698.475 569.353 611.844 585.341 529.054 596.845H546.801C624.369 585.552 704.972 570.395 784.857 551.64C1157.68 464.108 1461.94 282.439 1439.39 186.39C1416.84 90.3402 1080.85 113.509 708.021 201.042C335.195 288.574 -21.5352 456.209 1.01533 552.259C5.43925 571.102 23.9457 585.896 53.654 596.845H61.2354C47.6845 592.359 36.286 587.176 27.2403 581.302C14.0615 572.745 6.07165 562.857 3.44915 551.687C0.829114 540.528 3.64924 528.076 11.775 514.462C19.904 500.843 33.2205 486.279 51.1591 471.077C87.0278 440.68 140.945 408.092 207.348 375.703C340.119 310.942 522.327 247.207 708.593 203.476C894.919 159.73 1071.95 132.091 1205.15 127.371C1271.77 125.01 1327.27 128.391 1367.43 138.277C1407.82 148.215 1431.68 164.454 1436.96 186.961Z" fill="#C25A3F"/>
</svg>
