<svg width="186" height="29" viewBox="0 0 186 29" fill="none" xmlns="http://www.w3.org/2000/svg">
<path d="M-985 26.9297C-985 26.9297 -956.42 29.3378 -938.667 26.9297C-915.794 23.8273 -902.63 9.73898 -891.938 9.73898C-881.246 9.73898 -871.741 26.9297 -826.596 26.9297C-781.451 26.9297 -589.783 27.1895 -564.438 26.9297C-539.093 26.67 -543.645 16.9922 -528.797 17.6522C-516.088 18.2171 -511.81 26.4212 -499.096 26.9297C-488.424 27.3566 -482.068 20.9266 -477.712 20.9266C-474.544 20.9266 -468.208 26.9297 -461.871 26.9297C-455.535 26.9297 3.04364 26.9303 22.0521 26.9297C41.0605 26.9292 47.3967 0.999907 58.485 1C69.5732 1.00009 68.3852 26.9297 109.966 26.9297C151.547 26.9297 186 26.9297 186 26.9297" stroke="#F5DBD2" stroke-width="2"/>
<path d="M-938.667 26.9297C-956.42 29.3378 -985 26.9297 -985 26.9297H-938.667C-915.794 23.8273 -902.63 9.73898 -891.938 9.73898C-881.246 9.73898 -871.741 26.9297 -826.596 26.9297H-564.438C-539.093 26.67 -543.645 16.9922 -528.797 17.6522C-516.088 18.2171 -511.81 26.4212 -499.096 26.9297H-497.07C-487.607 26.5481 -481.785 20.9266 -477.712 20.9266C-474.544 20.9266 -468.208 26.9297 -461.871 26.9297H22.0521C41.0605 26.9292 47.0007 0.999907 58.089 1C69.1772 1.00009 68.3853 26.9297 109.966 26.9297H22.0521C4.9079 26.9302 -369.813 26.9298 -447.799 26.9298L-461.871 26.9297H-497.07C-497.728 26.9563 -498.403 26.9575 -499.096 26.9297H-564.438C-589.783 27.1895 -781.451 26.9297 -826.596 26.9297H-938.667Z" fill="url(#paint0_linear)"/>
<path d="M-461.871 26.9297L-447.799 26.9298C-369.813 26.9298 4.9079 26.9302 22.0521 26.9297H-461.871Z" fill="url(#paint1_linear)"/>
<defs>
<linearGradient id="paint0_linear" x1="-399.5" y1="-11.2791" x2="-399.5" y2="28" gradientUnits="userSpaceOnUse">
<stop stop-color="#F5DBD2"/>
<stop offset="1" stop-color="#F5DBD2" stop-opacity="0"/>
</linearGradient>
<linearGradient id="paint1_linear" x1="-399.5" y1="-11.2791" x2="-399.5" y2="28" gradientUnits="userSpaceOnUse">
<stop stop-color="#F5DBD2"/>
<stop offset="1" stop-color="#F5DBD2" stop-opacity="0"/>
</linearGradient>
</defs>
</svg>
