<svg width="1095" height="49" viewBox="0 0 1095 49" fill="none" xmlns="http://www.w3.org/2000/svg">
<path d="M46.3331 47.0577C28.5796 51.4279 0 47.0577 0 47.0577H46.3331C69.2055 41.4273 82.37 15.8596 93.0622 15.8596C103.754 15.8596 113.259 47.0577 158.404 47.0577H420.562C445.907 46.5862 441.355 29.0229 456.203 30.2206C468.912 31.2458 473.19 46.1348 485.904 47.0577H487.93C497.393 46.3651 503.215 36.1631 507.288 36.1631C510.456 36.1631 516.792 47.0577 523.129 47.0577H1007.05C1026.06 47.0567 1032 -0.000168853 1043.09 0C1054.18 0.000168853 1053.39 47.0577 1094.97 47.0577H1007.05C989.908 47.0585 615.187 47.0578 537.201 47.0577L523.129 47.0577H487.93C487.272 47.1058 486.597 47.108 485.904 47.0577H420.562C395.217 47.5291 203.549 47.0577 158.404 47.0577H46.3331Z" fill="url(#paint0_linear)"/>
<path d="M523.129 47.0577L537.201 47.0577C615.187 47.0578 989.908 47.0585 1007.05 47.0577H523.129Z" fill="url(#paint1_linear)"/>
<defs>
<linearGradient id="paint0_linear" x1="585.5" y1="-22.2843" x2="585.5" y2="49" gradientUnits="userSpaceOnUse">
<stop stop-color="#F5DBD2"/>
<stop offset="1" stop-color="#F5DBD2" stop-opacity="0"/>
</linearGradient>
<linearGradient id="paint1_linear" x1="585.5" y1="-22.2843" x2="585.5" y2="49" gradientUnits="userSpaceOnUse">
<stop stop-color="#F5DBD2"/>
<stop offset="1" stop-color="#F5DBD2" stop-opacity="0"/>
</linearGradient>
</defs>
</svg>
