<svg width="1172" height="51" viewBox="0 0 1172 51" fill="none" xmlns="http://www.w3.org/2000/svg">
<path d="M1 48.0577C1 48.0577 29.5796 52.4279 47.3331 48.0577C70.2055 42.4273 83.37 16.8596 94.0622 16.8596C104.754 16.8596 114.259 48.0577 159.404 48.0577C204.549 48.0577 396.217 48.5291 421.562 48.0577C446.907 47.5862 442.355 30.0229 457.203 31.2206C469.912 32.2458 474.19 47.1348 486.904 48.0577C497.576 48.8323 503.932 37.1631 508.288 37.1631C511.456 37.1631 517.792 48.0577 524.129 48.0577C530.465 48.0577 989.044 48.0586 1008.05 48.0577C1027.06 48.0567 1033.4 0.999831 1044.48 1C1055.57 1.00017 1054.39 48.0577 1095.97 48.0577C1137.55 48.0577 1172 48.0577 1172 48.0577" stroke="#F5DBD2" stroke-width="2"/>
</svg>
