<?xml version="1.0" encoding="utf-8"?>
<!-- Generator: Adobe Illustrator 23.0.4, SVG Export Plug-In . SVG Version: 6.00 Build 0)  -->
<svg version="1.1" id="Layer_1" xmlns="http://www.w3.org/2000/svg" xmlns:xlink="http://www.w3.org/1999/xlink" x="0px" y="0px"
	 viewBox="0 0 98.3 24.1" style="enable-background:new 0 0 98.3 24.1;" xml:space="preserve">
<style type="text/css">
	.st0{fill:#00B67A;}
	.st1{fill:#005128;}
</style>
<title>Asset 1</title>
<g>
	<g id="Layer_7">
		<path d="M25.8,8.6h9.9v1.8h-3.9v10.4h-2.1V10.4h-3.9L25.8,8.6L25.8,8.6z M35.3,11.9h1.8v1.7l0,0c0.1-0.3,0.2-0.5,0.3-0.7
			c0.2-0.2,0.4-0.4,0.6-0.6c0.2-0.2,0.5-0.4,0.8-0.5c0.3-0.1,0.6-0.2,0.9-0.2h0.5c0.1,0,0.2,0,0.3,0v1.9l-0.4-0.1
			c-0.2,0-0.3,0-0.4,0c-0.3,0-0.6,0.1-0.9,0.2c-0.3,0.1-0.6,0.3-0.8,0.6c-0.2,0.3-0.4,0.6-0.5,0.9c-0.1,0.4-0.2,0.9-0.2,1.3v4.2h-2
			L35.3,11.9L35.3,11.9z M49.6,20.8h-1.9v-1.2l0,0c-0.3,0.5-0.6,0.8-1.1,1.1c-0.4,0.3-0.9,0.4-1.5,0.4c-0.9,0.1-1.9-0.2-2.5-0.9
			c-0.6-0.7-0.9-1.7-0.8-2.6v-5.7h2v5.5c-0.1,0.6,0.1,1.2,0.5,1.6c0.3,0.3,0.8,0.5,1.3,0.5c0.3,0,0.7-0.1,1-0.2
			c0.3-0.1,0.5-0.3,0.7-0.5c0.2-0.2,0.3-0.5,0.4-0.8c0.1-0.3,0.1-0.7,0.1-1v-5.1h2L49.6,20.8L49.6,20.8z M52.9,18
			c0,0.5,0.3,0.9,0.7,1.2c0.4,0.2,0.9,0.4,1.4,0.3c0.2,0,0.4,0,0.6,0c0.2,0,0.4-0.1,0.7-0.2c0.2-0.1,0.4-0.2,0.5-0.4
			c0.1-0.2,0.2-0.4,0.2-0.6c0-0.2-0.1-0.5-0.3-0.6c-0.2-0.2-0.4-0.3-0.7-0.4c-0.3-0.1-0.6-0.2-0.9-0.2c-0.3-0.1-0.7-0.1-1-0.2
			s-0.7-0.2-1.1-0.3c-0.4-0.1-0.7-0.3-1-0.5c-0.3-0.2-0.5-0.4-0.6-0.8c-0.2-0.3-0.3-0.7-0.2-1.1c0-0.4,0.1-0.9,0.4-1.2
			c0.2-0.3,0.5-0.6,0.9-0.8c0.4-0.2,0.8-0.3,1.2-0.4c0.4-0.1,0.8-0.1,1.3-0.1c0.4,0,0.9,0,1.3,0.1c0.4,0.1,0.8,0.2,1.1,0.5
			c0.3,0.2,0.6,0.5,0.8,0.9c0.2,0.4,0.4,0.8,0.4,1.3h-2c0-0.4-0.3-0.8-0.6-0.9c-0.4-0.2-0.8-0.3-1.2-0.2h-0.5
			c-0.2,0-0.4,0.1-0.5,0.1c-0.2,0.1-0.3,0.2-0.4,0.3c-0.1,0.1-0.2,0.3-0.2,0.5c0,0.2,0.1,0.4,0.2,0.6c0.2,0.2,0.4,0.3,0.7,0.4
			c0.3,0.1,0.6,0.2,0.9,0.2l1.1,0.2c0.4,0.1,0.7,0.2,1,0.3c0.3,0.1,0.6,0.3,0.9,0.5c0.3,0.2,0.5,0.5,0.7,0.7
			c0.2,0.3,0.3,0.7,0.2,1.1c0,0.5-0.1,0.9-0.4,1.3c-0.2,0.4-0.6,0.7-0.9,0.9c-0.4,0.2-0.8,0.4-1.3,0.5C55.8,21,55.3,21,54.9,21
			c-0.5,0-1.1-0.1-1.6-0.2c-0.4-0.1-0.9-0.3-1.2-0.6c-0.3-0.3-0.6-0.6-0.8-1c-0.2-0.4-0.3-0.8-0.3-1.3H52.9L52.9,18z M59.4,12h1.5
			V9.3h2v2.7h1.8v1.4h-1.8v4.8c0,0.2,0,0.4,0,0.5c0,0.1,0,0.3,0.1,0.4c0.1,0.1,0.2,0.2,0.3,0.2c0.2,0.1,0.3,0.1,0.5,0.1h0.4
			c0.1,0,0.3,0,0.4-0.1v1.5c-0.2,0-0.4,0-0.6,0.1c-0.2,0-0.4,0-0.6,0c-0.4,0-0.8,0-1.2-0.1c-0.3-0.1-0.5-0.2-0.7-0.4
			c-0.2-0.2-0.3-0.4-0.4-0.7c-0.1-0.3-0.1-0.7-0.1-1v-5.2h-1.5V12L59.4,12L59.4,12z M66,12h1.8v1.2l0,0c0.2-0.5,0.6-1,1.2-1.2
			c0.5-0.2,1.1-0.3,1.6-0.3c0.6,0,1.3,0.1,1.8,0.4c0.5,0.2,0.9,0.6,1.3,1c0.4,0.4,0.6,1,0.8,1.5c0.2,0.6,0.3,1.2,0.3,1.8
			c0,0.6-0.1,1.2-0.2,1.7c-0.2,0.5-0.4,1-0.7,1.5c-0.3,0.4-0.7,0.8-1.2,1c-0.5,0.3-1.1,0.4-1.7,0.4c-0.3,0-0.6,0-0.8,0
			c-0.3,0-0.6-0.1-0.8-0.2c-0.3-0.1-0.5-0.3-0.7-0.5c-0.2-0.2-0.4-0.4-0.6-0.6l0,0v4.4h-2L66,12L66,12z M72.8,16.5
			c0-0.4-0.1-0.8-0.2-1.2c-0.1-0.4-0.3-0.7-0.5-1c-0.2-0.3-0.5-0.5-0.8-0.7c-0.3-0.2-0.7-0.3-1.1-0.3c-0.7,0-1.4,0.3-1.9,0.9
			c-0.4,0.7-0.7,1.5-0.6,2.3c0,0.4,0,0.8,0.2,1.2c0.1,0.4,0.3,0.7,0.5,1c0.2,0.3,0.5,0.5,0.8,0.7c0.3,0.2,0.7,0.2,1.1,0.2
			c0.4,0,0.8-0.1,1.1-0.3c0.3-0.2,0.6-0.4,0.8-0.7c0.2-0.3,0.3-0.6,0.4-1C72.8,17.3,72.8,16.9,72.8,16.5L72.8,16.5z M76.3,8.6h2v1.8
			h-2V8.6z M76.3,12h2v8.9h-2C76.3,20.9,76.3,12,76.3,12z M80,8.6h2v12.3h-2V8.6z M88,21.1c-0.7,0-1.3-0.1-1.9-0.4
			c-0.5-0.2-1-0.6-1.4-1c-0.4-0.4-0.7-0.9-0.9-1.5c-0.2-0.6-0.3-1.2-0.3-1.9c0-0.6,0.1-1.3,0.3-1.9c0.2-0.6,0.5-1.1,0.9-1.5
			c0.4-0.4,0.9-0.8,1.4-1c0.6-0.2,1.3-0.3,1.9-0.3c0.7,0,1.3,0.1,1.9,0.4c0.5,0.2,1,0.6,1.4,1c0.4,0.4,0.7,0.9,0.9,1.5
			c0.2,0.6,0.3,1.2,0.3,1.9c0,0.6-0.1,1.3-0.3,1.9c-0.2,0.5-0.5,1.1-0.9,1.5c-0.4,0.4-0.9,0.8-1.4,1C89.3,21,88.7,21.2,88,21.1
			L88,21.1z M88,19.5c0.4,0,0.8-0.1,1.1-0.3c0.3-0.2,0.6-0.4,0.8-0.7c0.2-0.3,0.4-0.6,0.5-1c0.2-0.7,0.2-1.5,0-2.3
			c-0.1-0.4-0.2-0.7-0.5-1c-0.2-0.3-0.5-0.5-0.8-0.7c-0.3-0.2-0.7-0.3-1.1-0.3c-0.4,0-0.8,0.1-1.1,0.3c-0.3,0.2-0.6,0.4-0.8,0.7
			c-0.2,0.3-0.4,0.6-0.4,1c-0.2,0.7-0.2,1.5,0,2.3c0.1,0.4,0.2,0.7,0.4,1c0.2,0.3,0.5,0.5,0.8,0.7C87.2,19.4,87.6,19.5,88,19.5z
			 M93.1,11.9h1.5V9.3h2v2.7h1.7v1.4h-1.8v4.8c0,0.2,0,0.4,0,0.5c0,0.1,0.1,0.3,0.1,0.4c0.1,0.1,0.2,0.2,0.3,0.2
			c0.2,0.1,0.3,0.1,0.5,0.1h0.4c0.1,0,0.3,0,0.4-0.1v1.5l-0.6,0.1c-0.2,0-0.4,0-0.6,0c-0.4,0-0.8,0-1.2-0.1
			c-0.3-0.1-0.5-0.2-0.7-0.4c-0.2-0.2-0.3-0.4-0.4-0.7c-0.1-0.3-0.1-0.7-0.1-1v-5.2h-1.5L93.1,11.9L93.1,11.9L93.1,11.9z"/>
		<path class="st0" d="M23.5,8.6h-9L11.8,0L9,8.6H0l7.3,5.3l-2.8,8.5l7.3-5.3l7.2,5.3l-2.8-8.6L23.5,8.6z"/>
		<path class="st1" d="M16.9,15.8l-0.6-1.9l-4.5,3.3L16.9,15.8z"/>
	</g>
</g>
</svg>
